<?xml version="1.0" standalone="no"?>
<!DOCTYPE svg PUBLIC "-//W3C//DTD SVG 20010904//EN"
 "http://www.w3.org/TR/2001/REC-SVG-20010904/DTD/svg10.dtd">
<svg version="1.0" xmlns="http://www.w3.org/2000/svg"
 width="700.000000pt" height="700.000000pt" viewBox="0 0 700.000000 700.000000"
 preserveAspectRatio="xMidYMid meet">
<metadata>
Created by potrace 1.11, written by Peter Selinger 2001-2013
</metadata>
<g transform="translate(0.000000,700.000000) scale(0.100000,-0.100000)"
fill="#000000" stroke="none">
<path d="M375 6986 c-72 -34 -77 -44 -211 -453 -69 -214 -135 -415 -146 -448
-24 -72 -22 -94 26 -305 19 -85 37 -166 39 -180 3 -14 12 -55 21 -91 8 -37 17
-78 20 -90 13 -63 57 -267 72 -326 8 -38 18 -79 20 -93 3 -14 11 -53 19 -86
13 -58 18 -82 31 -144 3 -14 9 -41 14 -60 5 -19 11 -46 14 -60 3 -14 7 -35 10
-46 2 -12 14 -66 26 -120 12 -55 30 -139 41 -189 19 -85 22 -100 33 -150 2
-11 13 -60 25 -110 11 -49 22 -101 24 -115 3 -14 15 -42 27 -63 37 -62 31
-101 -54 -357 -43 -129 -79 -239 -80 -245 -2 -5 -6 -17 -9 -25 -3 -8 -15 -44
-25 -80 -11 -36 -70 -220 -132 -410 -118 -361 -123 -380 -122 -420 1 -27 3
-35 60 -230 44 -148 169 -576 184 -627 5 -18 9 -36 9 -40 1 -5 5 -15 10 -24 4
-9 10 -27 13 -40 8 -37 21 -84 56 -199 17 -58 35 -119 40 -137 15 -60 50 -118
87 -143 45 -31 121 -33 203 -7 42 13 565 160 650 182 8 2 153 42 322 88 273
76 312 84 349 76 44 -10 93 -41 175 -111 77 -64 124 -101 150 -118 13 -8 101
-69 195 -135 321 -224 382 -265 413 -274 42 -13 989 -12 1041 1 63 16 661 436
851 597 28 24 79 41 122 41 31 0 246 -56 707 -185 72 -20 189 -52 260 -72 72
-20 190 -53 263 -74 89 -25 148 -36 177 -34 52 4 119 44 139 83 11 22 81 248
102 332 2 8 12 44 23 80 25 83 109 373 206 705 86 295 85 271 24 453 -22 64
-41 124 -43 133 -4 15 -63 199 -136 419 -20 63 -68 210 -105 325 -37 116 -78
244 -92 285 -28 87 -27 152 4 196 11 17 31 82 46 154 15 69 44 204 66 300 22
96 42 187 46 203 3 15 7 39 10 55 3 15 10 43 15 62 5 19 11 46 14 60 6 29 68
307 96 433 11 48 29 129 41 180 11 50 27 121 36 156 8 36 17 74 19 85 2 12 6
32 9 46 3 14 7 34 9 45 3 11 14 58 25 105 11 47 22 97 25 110 3 14 8 36 11 50
21 87 17 112 -39 285 -31 94 -60 179 -65 190 -5 11 -19 54 -31 95 -12 41 -26
84 -31 95 -5 11 -31 89 -59 174 -28 85 -60 167 -72 184 -40 56 -146 84 -215
56 -15 -7 -41 -17 -58 -24 -16 -7 -66 -25 -110 -40 -44 -15 -88 -31 -98 -37
-10 -5 -26 -11 -35 -13 -9 -2 -107 -38 -217 -80 -110 -42 -204 -77 -210 -79
-5 -2 -17 -6 -25 -9 -8 -4 -132 -49 -275 -102 -288 -106 -332 -123 -357 -136
-10 -5 -22 -9 -28 -9 -6 0 -49 -15 -98 -34 -48 -19 -186 -71 -307 -117 l-220
-83 -934 -1 -935 -1 -275 104 c-152 57 -301 112 -331 123 -30 12 -63 25 -72
30 -10 5 -26 9 -36 9 -10 0 -22 4 -27 8 -6 5 -23 14 -40 20 -102 38 -320 118
-375 139 -36 14 -76 28 -90 33 -14 4 -38 14 -55 20 -16 7 -37 14 -45 16 -8 2
-23 7 -35 12 -11 6 -47 20 -80 32 -33 12 -69 26 -80 30 -11 5 -81 31 -155 58
-74 28 -184 69 -245 92 -123 46 -204 58 -250 36z m2752 -5213 c-4 -3 1 -12 11
-20 16 -12 16 -13 -2 -6 -14 5 -17 3 -11 -7 5 -8 4 -11 -3 -7 -5 4 -9 15 -7
25 5 23 4 22 12 22 3 0 3 -3 0 -7z m461 -9 c8 -2 17 -5 20 -8 3 -4 -4 -5 -16
-3 -12 2 -28 9 -35 17 -10 10 -9 11 3 4 8 -5 21 -9 28 -10z m-378 2 c0 -2 -7
-7 -16 -10 -8 -3 -12 -2 -9 4 6 10 25 14 25 6z m43 -15 c3 -13 0 -18 -7 -15
-7 3 -13 11 -13 19 0 22 14 18 20 -4z m59 -13 c-8 -8 -9 -4 -5 13 4 13 8 18
11 10 2 -7 -1 -18 -6 -23z m142 21 c-7 -12 -41 -16 -41 -5 0 6 10 11 23 11 12
0 20 -3 18 -6z m76 1 c0 -5 -4 -10 -10 -10 -5 0 -10 5 -10 10 0 6 5 10 10 10
6 0 10 -4 10 -10z m103 -5 c-3 -9 -8 -14 -10 -11 -3 3 -2 9 2 15 9 16 15 13 8
-4z m100 -4 c3 -13 0 -18 -7 -15 -7 3 -13 11 -13 19 0 22 14 18 20 -4z m59
-13 c-8 -8 -9 -4 -5 13 4 13 8 18 11 10 2 -7 -1 -18 -6 -23z m-699 -3 c-3 -9
-8 -14 -10 -11 -3 3 -2 9 2 15 9 16 15 13 8 -4z m399 -9 c3 2 8 -2 11 -10 4
-11 1 -13 -10 -9 -12 5 -14 3 -8 -8 4 -8 6 -12 2 -9 -3 3 -6 10 -7 15 -1 6 -6
19 -12 30 -8 18 -8 19 5 3 8 -10 16 -15 19 -12z m398 14 c0 -5 -4 -10 -10 -10
-5 0 -10 5 -10 10 0 6 5 10 10 10 6 0 10 -4 10 -10z m-471 -34 c-3 -3 -11 5
-18 17 -13 21 -12 21 5 5 10 -10 16 -20 13 -22z m149 23 c-2 -6 -7 -10 -12 -9
-5 1 -13 -4 -18 -12 -8 -10 -9 -10 -5 2 2 8 10 14 16 13 6 -2 11 2 11 7 0 6 3
10 6 10 3 0 4 -5 2 -11z m-439 -33 c-3 -3 -11 5 -18 17 -13 21 -12 21 5 5 10
-10 16 -20 13 -22z m41 24 c0 -5 -2 -10 -4 -10 -3 0 -8 5 -11 10 -3 6 -1 10 4
10 6 0 11 -4 11 -10z m73 -10 c10 -12 9 -12 -4 -2 -9 6 -18 9 -21 6 -3 -3 -9
-1 -12 4 -9 15 22 8 37 -8z m45 8 c-2 -6 -10 -13 -16 -14 -7 -1 -8 0 -2 3 5 2
8 9 4 14 -3 5 0 9 6 9 7 0 10 -5 8 -12z m96 -5 c4 -9 -1 -10 -18 -3 -13 5 -27
6 -30 3 -3 -4 -6 -2 -6 4 0 15 49 11 54 -4z m243 -5 c-3 -8 -6 -5 -6 6 -1 11
2 17 5 13 3 -3 4 -12 1 -19z m63 12 c0 -5 -5 -10 -11 -10 -5 0 -7 5 -4 10 3 6
8 10 11 10 2 0 4 -4 4 -10z m77 -5 c0 -8 -4 -12 -9 -9 -4 3 -8 9 -8 15 0 5 4
9 8 9 5 0 9 -7 9 -15z m63 4 c0 -5 -4 -8 -9 -4 -5 3 -12 1 -16 -5 -3 -5 -11
-10 -18 -10 -6 0 -2 7 9 15 23 17 34 19 34 4z m36 -1 c5 -7 3 -8 -6 -3 -9 6
-12 4 -8 -7 4 -8 0 -15 -7 -15 -10 0 -11 5 -4 19 11 21 15 22 25 6z m64 2 c0
-5 -5 -10 -11 -10 -5 0 -7 5 -4 10 3 6 8 10 11 10 2 0 4 -4 4 -10z m-877 -14
c4 -10 1 -13 -8 -9 -8 3 -12 9 -9 14 7 12 11 11 17 -5z m397 -31 c0 -5 -5 -3
-10 5 -5 8 -10 20 -10 25 0 6 5 3 10 -5 5 -8 10 -19 10 -25z m283 14 c-4 -15
-8 -17 -14 -8 -6 11 4 28 18 29 0 0 -1 -9 -4 -21z m-629 -3 c-3 -9 -12 -12
-22 -9 -15 6 -9 11 25 22 1 1 0 -5 -3 -13z m230 -2 c5 -14 4 -15 -9 -4 -17 14
-19 20 -6 20 5 0 12 -7 15 -16z m570 2 c-3 -9 -12 -12 -22 -9 -15 6 -9 11 25
22 1 1 0 -5 -3 -13z m-894 -6 c0 -5 -2 -10 -4 -10 -3 0 -8 5 -11 10 -3 6 -1
10 4 10 6 0 11 -4 11 -10z m393 -4 c3 -8 0 -17 -7 -19 -10 -4 -12 1 -9 14 6
23 9 24 16 5z m131 2 c-3 -4 -9 -8 -15 -8 -5 0 -9 4 -9 8 0 5 7 9 15 9 8 0 12
-4 9 -9z m61 2 c3 -6 -1 -7 -9 -4 -18 7 -21 14 -7 14 6 0 13 -4 16 -10z m59
-5 c-4 -8 -11 -15 -16 -15 -6 0 -5 6 2 15 7 8 14 15 16 15 2 0 1 -7 -2 -15z
m141 5 c3 -6 -1 -7 -9 -4 -18 7 -21 14 -7 14 6 0 13 -4 16 -10z m175 -5 c0 -1
-9 -5 -19 -8 -13 -3 -18 -1 -14 9 4 10 33 10 33 -1z m-745 -5 c3 -6 -1 -7 -9
-4 -18 7 -21 14 -7 14 6 0 13 -4 16 -10z m625 0 c11 -7 11 -10 2 -10 -7 0 -10
-5 -6 -12 4 -7 3 -8 -5 -4 -6 4 -8 12 -5 18 5 8 1 9 -10 5 -10 -4 -15 -3 -11
3 8 12 16 12 35 0z m-798 -7 c-6 -3 -10 -8 -7 -13 3 -4 -2 -10 -10 -14 -8 -3
-17 0 -21 6 -5 7 -2 8 6 3 9 -6 12 -4 8 6 -4 10 1 15 16 16 11 0 15 -1 8 -4z
m189 -20 c-12 -20 -14 -14 -5 12 4 9 9 14 11 11 3 -2 0 -13 -6 -23z m243 15
c-5 -8 -2 -9 9 -5 23 9 21 0 -2 -13 -16 -8 -19 -7 -16 8 5 23 4 22 11 22 3 0
2 -5 -2 -12z m102 0 c4 -7 3 -8 -4 -4 -7 4 -12 0 -12 -10 0 -10 -3 -15 -6 -11
-7 6 2 37 10 37 3 0 8 -5 12 -12z m-272 -14 c3 -8 2 -13 -3 -9 -5 3 -11 0 -13
-7 -3 -7 -7 -5 -11 6 -4 10 -3 15 3 11 6 -3 10 -1 10 4 0 16 7 13 14 -5z m438
-2 c-7 -2 -10 -8 -7 -13 4 -5 -2 -6 -11 -2 -13 5 -15 3 -9 -7 6 -9 4 -11 -5
-5 -10 6 -10 11 3 20 9 7 14 15 10 19 -4 4 1 4 12 0 11 -5 14 -9 7 -12z m61
-12 c3 -11 2 -18 -3 -15 -4 3 -10 14 -13 25 -3 11 -2 18 3 15 4 -3 10 -14 13
-25z m-433 10 c8 -5 11 -10 5 -10 -5 0 -17 5 -25 10 -8 5 -10 10 -5 10 6 0 17
-5 25 -10z m300 0 c-18 -12 -30 -13 -30 -2 0 4 10 9 22 9 18 2 20 0 8 -7z
m315 -8 c-3 -3 -11 0 -18 7 -9 10 -8 11 6 5 10 -3 15 -9 12 -12z m-988 -24 c4
-28 -6 -18 -12 12 -2 12 -1 20 2 16 4 -4 8 -16 10 -28z m80 17 c0 -8 -4 -15
-9 -15 -10 0 -11 14 -1 23 9 10 10 9 10 -8z m800 0 c0 -8 -4 -15 -9 -15 -10 0
-11 14 -1 23 9 10 10 9 10 -8z m-357 -5 c0 -5 -4 -10 -10 -10 -5 0 -10 5 -10
10 0 6 5 10 10 10 6 0 10 -4 10 -10z m108 -21 c-3 -8 -7 -3 -11 10 -4 17 -3
21 5 13 5 -5 8 -16 6 -23z m-519 -11 c-12 -23 -21 -24 -12 -1 5 12 3 14 -7 8
-8 -5 -11 -4 -7 2 3 5 13 10 21 10 11 0 13 -5 5 -19z m241 12 c8 -5 11 -10 5
-10 -5 0 -17 5 -25 10 -8 5 -10 10 -5 10 6 0 17 -5 25 -10z m330 0 c0 -5 -5
-10 -11 -10 -5 0 -7 5 -4 10 3 6 8 10 11 10 2 0 4 -4 4 -10z m84 2 c3 -5 -1
-9 -9 -9 -8 0 -15 4 -15 9 0 4 4 8 9 8 6 0 12 -4 15 -8z m70 0 c2 -4 -5 -9
-17 -9 -17 -2 -19 0 -7 7 18 12 18 12 24 2z m75 -14 c-12 -23 -21 -24 -12 -1
5 12 3 14 -7 8 -8 -5 -11 -4 -7 2 3 5 13 10 21 10 11 0 13 -5 5 -19z m-415 3
c4 -5 -3 -7 -14 -4 -23 6 -26 13 -6 13 8 0 17 -4 20 -9z m-171 -18 c-4 -10 -2
-14 4 -10 5 3 10 0 10 -7 0 -8 -7 -12 -15 -8 -11 4 -13 1 -7 -8 5 -9 4 -11 -4
-6 -6 4 -10 10 -8 14 2 4 7 15 10 25 4 9 9 17 11 17 3 0 2 -7 -1 -17z m120 2
c-3 -9 -8 -14 -10 -11 -3 3 -2 9 2 15 9 16 15 13 8 -4z m151 3 c-5 -7 -2 -9 9
-5 11 4 14 2 10 -9 -4 -11 -9 -12 -19 -3 -12 10 -11 29 2 29 3 0 2 -5 -2 -12z
m120 0 c-5 -8 -2 -9 9 -5 23 9 21 0 -2 -13 -16 -8 -19 -7 -16 8 5 23 4 22 11
22 3 0 2 -5 -2 -12z m-712 -5 c-6 -2 -10 -9 -6 -14 3 -5 0 -9 -5 -9 -12 0 -14
13 -4 23 3 4 11 7 17 6 6 0 5 -3 -2 -6z m45 1 c-3 -3 -12 -4 -19 -1 -8 3 -5 6
6 6 11 1 17 -2 13 -5z m29 -20 c1 -9 0 -13 -4 -10 -3 4 -7 14 -8 22 -1 9 0 13
4 10 3 -4 7 -14 8 -22z m705 11 c5 4 6 -2 2 -11 -4 -11 -8 -13 -11 -6 -2 7 -8
10 -13 7 -5 -4 -6 2 -2 11 4 11 8 13 11 6 2 -7 8 -10 13 -7z m99 -6 c0 -5 -4
-9 -8 -9 -5 0 -9 7 -9 15 0 8 4 12 9 9 4 -3 8 -9 8 -15z m116 -5 c1 -9 0 -13
-4 -10 -3 4 -7 14 -8 22 -1 9 0 13 4 10 3 -4 7 -14 8 -22z m-856 5 c0 -5 -4
-8 -9 -4 -5 3 -12 1 -16 -5 -3 -5 -11 -10 -18 -10 -6 0 -2 7 9 15 23 17 34 19
34 4z m249 -3 c9 -11 9 -16 0 -22 -8 -5 -9 -3 -4 6 6 10 4 12 -8 7 -11 -4 -14
-2 -10 9 6 17 8 17 22 0z m121 5 c0 -5 -7 -12 -16 -15 -14 -5 -15 -4 -4 9 14
17 20 19 20 6z m430 1 c0 -5 -7 -9 -15 -9 -8 0 -12 4 -9 9 3 4 9 8 15 8 5 0 9
-4 9 -8z m-726 -11 c4 -5 -3 -7 -14 -4 -23 6 -26 13 -6 13 8 0 17 -4 20 -9z
m407 -14 c-10 -9 -11 -8 -5 6 3 10 9 15 12 12 3 -3 0 -11 -7 -18z m209 19 c0
-2 -7 -7 -16 -10 -8 -3 -12 -2 -9 4 6 10 25 14 25 6z m-845 -36 l20 -25 -22
19 c-13 11 -23 24 -23 29 0 6 1 8 3 6 1 -2 11 -15 22 -29z m58 6 c6 -14 -28
-15 -40 -1 -5 4 -2 4 6 0 11 -6 13 -4 8 8 -4 11 -2 14 8 11 7 -3 16 -11 18
-18z m120 7 c-5 -12 -3 -14 7 -8 9 5 11 4 6 -4 -6 -9 -11 -9 -22 0 -12 10 -12
14 -2 20 18 12 18 11 11 -8z m680 0 c-5 -12 -3 -14 7 -8 9 5 11 4 6 -4 -6 -9
-11 -9 -22 0 -12 10 -12 14 -2 20 18 12 18 11 11 -8z m60 -14 c-8 -8 -13 -7
-18 2 -6 8 -4 10 5 4 10 -6 12 -4 6 11 -6 15 -5 17 5 7 9 -10 10 -16 2 -24z
m60 10 c-4 -15 -8 -17 -14 -8 -6 11 4 28 18 29 0 0 -1 -9 -4 -21z m-741 -31
c-8 -8 -9 -4 -5 13 4 13 8 18 11 10 2 -7 -1 -18 -6 -23z m58 22 c0 -5 -2 -10
-4 -10 -3 0 -8 5 -11 10 -3 6 -1 10 4 10 6 0 11 -4 11 -10z m80 0 c0 -5 -4
-10 -10 -10 -5 0 -10 5 -10 10 0 6 5 10 10 10 6 0 10 -4 10 -10z m80 6 c0 -3
-4 -8 -10 -11 -5 -3 -10 -1 -10 4 0 6 5 11 10 11 6 0 10 -2 10 -4z m43 -16 c3
-11 1 -18 -4 -14 -5 3 -9 12 -9 20 0 20 7 17 13 -6z m127 10 c8 -5 11 -10 5
-10 -5 0 -17 5 -25 10 -8 5 -10 10 -5 10 6 0 17 -5 25 -10z m75 1 c-9 -8 -36
-10 -30 -2 2 4 11 8 20 8 8 0 13 -3 10 -6z m59 1 c3 -5 -1 -9 -9 -9 -8 0 -15
4 -15 9 0 4 4 8 9 8 6 0 12 -4 15 -8z m59 -11 c3 -13 1 -18 -9 -14 -7 2 -10
11 -7 19 7 19 10 18 16 -5z m-723 -8 c0 -5 -5 -15 -10 -23 -7 -12 -9 -10 -7 8
1 19 17 33 17 15z m234 -5 c-5 -8 -1 -9 12 -4 14 5 16 4 7 -5 -13 -13 -37 -3
-28 12 4 5 8 9 11 9 3 0 2 -5 -2 -12z m77 -11 c-8 -8 -14 -7 -23 2 -11 10 -9
11 6 5 15 -6 17 -4 11 6 -6 9 -4 11 4 5 9 -5 10 -10 2 -18z m325 -2 c2 -12 -2
-12 -17 -5 -23 13 -25 22 -2 13 12 -5 14 -3 8 8 -5 8 -4 11 0 6 5 -4 10 -14
11 -22z m-741 5 c-3 -5 -12 -10 -18 -10 -7 0 -6 4 3 10 19 12 23 12 15 0z
m169 -6 c3 -8 2 -13 -3 -9 -5 3 -11 0 -13 -7 -3 -7 -7 -5 -11 6 -4 10 -3 15 3
11 6 -3 10 -1 10 4 0 16 7 13 14 -5z m376 12 c0 -2 -8 -10 -17 -17 -16 -13
-17 -12 -4 4 13 16 21 21 21 13z m160 -38 c0 -5 -5 -8 -11 -8 -5 0 -8 4 -4 9
3 5 1 12 -5 16 -5 3 -10 11 -10 18 0 12 29 -23 30 -35z m316 24 c-10 -2 -22 0
-28 6 -6 6 0 7 19 4 21 -5 23 -7 9 -10z m-791 -2 c3 -6 -1 -7 -9 -4 -18 7 -21
14 -7 14 6 0 13 -4 16 -10z m620 0 c-3 -5 -12 -10 -18 -10 -7 0 -6 4 3 10 19
12 23 12 15 0z m55 6 c0 -3 -4 -8 -10 -11 -5 -3 -10 -1 -10 4 0 6 5 11 10 11
6 0 10 -2 10 -4z m-635 -24 c-3 -3 -11 0 -18 7 -9 10 -8 11 6 5 10 -3 15 -9
12 -12z m30 8 c-3 -5 -1 -10 6 -10 7 0 10 -3 6 -6 -9 -9 -28 6 -22 17 4 5 8 9
11 9 3 0 2 -4 -1 -10z m160 -11 c-4 -5 -12 -9 -18 -8 -9 0 -8 2 1 6 6 2 9 10
6 15 -4 7 -2 8 5 4 6 -4 9 -12 6 -17z m40 11 c-3 -5 -12 -10 -18 -10 -7 0 -6
4 3 10 19 12 23 12 15 0z m121 1 c-4 -5 -1 -11 6 -13 7 -3 5 -7 -6 -11 -10 -4
-15 -3 -11 3 3 6 0 10 -7 10 -9 0 -9 3 2 10 19 12 23 12 16 1z m-381 -42 c5
-5 -5 -4 -23 2 -17 6 -32 13 -32 16 0 7 43 -8 55 -18z m118 7 c4 -10 0 -12
-15 -8 -15 4 -17 7 -6 13 17 11 15 11 21 -5z m67 -1 c0 -1 -9 -5 -19 -8 -13
-3 -18 -1 -14 9 4 10 33 10 33 -1z m250 6 c0 -5 -7 -12 -16 -15 -14 -5 -15 -4
-4 9 14 17 20 19 20 6z m243 -5 c4 -10 0 -12 -15 -8 -15 4 -17 7 -6 13 17 11
15 11 21 -5z m107 0 c-7 -7 -13 -7 -20 0 -6 6 -3 10 10 10 13 0 16 -4 10 -10z
m-467 -3 c3 -5 -8 -8 -23 -8 -15 0 -26 3 -23 8 2 4 13 7 23 7 10 0 21 -3 23
-7z m-496 -28 c0 -8 -4 -12 -9 -9 -4 3 -8 -1 -9 -8 0 -10 -2 -10 -6 0 -2 6
-10 9 -15 6 -7 -4 -8 -2 -4 5 4 6 12 8 18 5 7 -5 9 -1 5 9 -4 10 -2 14 7 11 7
-3 13 -11 13 -19z m126 5 c-3 -11 -10 -23 -16 -27 -5 -3 -8 -2 -5 3 3 5 8 17
11 27 9 24 16 22 10 -3z m120 3 c-5 -12 -3 -14 7 -8 9 6 11 4 5 -4 -5 -9 -11
-9 -17 -3 -6 6 -7 15 -4 21 11 17 16 13 9 -6z m140 -14 c-8 -8 -13 -7 -18 2
-6 8 -4 10 5 4 10 -6 12 -4 6 11 -6 15 -5 17 5 7 9 -10 10 -16 2 -24z m128 4
c-12 -20 -14 -14 -5 12 4 9 9 14 11 11 3 -2 0 -13 -6 -23z m292 10 c-5 -12 -3
-14 7 -8 9 5 11 4 6 -4 -6 -9 -11 -9 -22 0 -12 10 -12 14 -2 20 18 12 18 11
11 -8z m68 -6 c-10 -9 -11 -8 -5 6 3 10 9 15 12 12 3 -3 0 -11 -7 -18z m52 6
c-5 -12 -3 -14 8 -8 8 5 11 5 6 -1 -5 -5 -12 -9 -15 -8 -4 1 -13 -6 -20 -15
-11 -14 -11 -14 -5 3 5 14 3 17 -7 11 -9 -5 -11 -4 -6 4 4 6 11 9 16 6 4 -3
10 2 14 10 3 8 8 15 10 15 3 0 2 -7 -1 -17z m-730 -13 c-3 -11 -10 -23 -16
-27 -5 -3 -8 -2 -5 3 3 5 8 17 11 27 9 24 16 22 10 -3z m250 -10 c3 -11 2 -18
-3 -15 -4 3 -10 14 -13 25 -3 11 -2 18 3 15 4 -3 10 -14 13 -25z m258 7 c-10
-9 -11 -8 -5 6 3 10 9 15 12 12 3 -3 0 -11 -7 -18z m-640 -19 c-10 -11 -11 -9
-5 6 6 15 4 17 -6 11 -9 -6 -11 -4 -5 4 5 9 10 10 18 2 8 -8 7 -14 -2 -23z
m256 17 c0 -8 -4 -15 -9 -15 -4 0 -8 7 -8 15 0 8 4 15 8 15 5 0 9 -7 9 -15z
m234 -12 c-12 -20 -14 -14 -5 12 4 9 9 14 11 11 3 -2 0 -13 -6 -23z m82 13 c3
-8 0 -17 -7 -19 -10 -4 -12 1 -9 14 6 23 9 24 16 5z m127 -11 c0 -2 -5 -7 -12
-11 -7 -5 -8 -3 -3 6 6 9 4 12 -7 8 -8 -4 -15 0 -15 7 0 10 5 11 19 4 10 -5
18 -12 18 -14z m-720 -20 c0 -11 -29 -11 -33 -1 -4 10 1 12 14 9 10 -3 19 -7
19 -8z m137 -11 c-5 -5 -57 13 -57 20 0 3 14 0 31 -6 16 -6 28 -12 26 -14z
m293 11 c-7 -8 -17 -15 -23 -15 -6 0 -2 7 9 15 25 19 30 19 14 0z m130 0 c0
-11 -29 -11 -33 -1 -4 10 1 12 14 9 10 -3 19 -7 19 -8z m110 0 c5 3 11 1 14
-4 4 -5 -2 -8 -11 -7 -9 2 -18 8 -19 15 -1 6 0 7 3 1 2 -5 9 -8 13 -5z m-770
-3 c0 -5 -7 -9 -15 -9 -8 0 -12 4 -9 9 3 4 9 8 15 8 5 0 9 -4 9 -8z m54 -8 c3
-8 2 -12 -4 -9 -6 3 -10 10 -10 16 0 14 7 11 14 -7z m646 1 c-7 -8 -17 -15
-23 -15 -6 0 -2 7 9 15 25 19 30 19 14 0z m144 3 c-3 -4 -9 -8 -15 -8 -5 0 -9
4 -9 8 0 5 7 9 15 9 8 0 12 -4 9 -9z m106 2 c8 -5 11 -10 5 -10 -5 0 -17 5
-25 10 -8 5 -10 10 -5 10 6 0 17 -5 25 -10z m70 6 c0 -2 -7 -7 -16 -10 -8 -3
-12 -2 -9 4 6 10 25 14 25 6z m17 -21 c0 -8 -4 -12 -9 -9 -5 3 -6 10 -3 15 9
13 12 11 12 -6z m-1023 -7 c-5 -8 -2 -9 9 -5 23 9 21 0 -2 -13 -16 -8 -19 -7
-16 8 5 23 4 22 11 22 3 0 2 -5 -2 -12z m717 -14 c5 -15 8 -29 5 -31 -2 -2 -8
10 -14 26 -13 38 -5 41 9 5z m-447 0 c3 -8 2 -13 -3 -9 -5 3 -11 0 -13 -7 -3
-7 -7 -5 -11 6 -4 10 -3 15 3 11 6 -3 10 -1 10 4 0 16 7 13 14 -5z m197 1 c5
4 6 -2 2 -11 -4 -11 -8 -13 -11 -6 -2 7 -8 10 -13 7 -5 -4 -6 2 -2 11 4 11 8
13 11 6 2 -7 8 -10 13 -7z m312 -4 c3 -13 1 -18 -9 -14 -7 2 -10 11 -7 19 7
19 10 18 16 -5z m219 5 c7 4 8 2 4 -5 -9 -13 -26 -5 -25 12 0 9 2 8 6 -1 2 -6
10 -9 15 -6z m-777 -17 c5 -5 -5 -4 -23 2 -17 6 -32 13 -32 16 0 7 43 -8 55
-18z m102 1 c-1 -11 -5 -20 -9 -20 -10 0 -10 4 -2 24 8 22 13 20 11 -4z m83
-12 c0 -19 -16 -5 -17 14 -2 18 0 20 7 8 5 -8 10 -18 10 -22z m250 22 c-8 -5
-19 -10 -25 -10 -5 0 -3 5 5 10 8 5 20 10 25 10 6 0 3 -5 -5 -10z m-575 -9 c3
-5 0 -13 -6 -17 -8 -5 -9 -3 -4 6 6 10 4 12 -9 7 -10 -4 -15 -3 -11 3 8 13 22
13 30 1z m458 2 c3 -5 -8 -8 -23 -8 -15 0 -26 3 -23 8 2 4 13 7 23 7 10 0 21
-3 23 -7z m383 -2 c-4 -5 -1 -11 6 -13 7 -3 5 -7 -6 -11 -10 -4 -15 -3 -11 3
3 6 0 10 -7 10 -9 0 -9 3 2 10 19 12 23 12 16 1z m101 -6 c0 -8 -4 -12 -9 -9
-5 3 -6 10 -3 15 9 13 12 11 12 -6z m-977 -30 c0 -5 -5 -3 -10 5 -5 8 -10 20
-10 25 0 6 5 3 10 -5 5 -8 10 -19 10 -25z m123 14 c-4 -15 -8 -17 -14 -8 -6
11 4 28 18 29 0 0 -1 -9 -4 -21z m810 -5 c-4 -11 -9 -12 -19 -3 -19 15 -18 20
3 12 12 -5 14 -3 8 7 -5 8 -4 11 3 6 6 -4 9 -13 5 -22z m-285 2 c-10 -7 -15
-15 -12 -18 2 -3 -2 -8 -10 -11 -11 -4 -13 -1 -9 10 5 12 3 14 -7 8 -9 -5 -11
-4 -6 4 4 6 11 9 15 7 4 -3 13 -1 21 5 22 13 27 10 8 -5z m-573 -6 c3 -5 1
-10 -4 -10 -6 0 -11 5 -11 10 0 6 2 10 4 10 3 0 8 -4 11 -10z m118 -4 c3 -8 0
-17 -7 -19 -10 -4 -12 1 -9 14 6 23 9 24 16 5z m144 -1 c5 -4 2 -4 -6 0 -10 6
-13 4 -9 -6 4 -10 -1 -15 -12 -15 -11 0 -16 5 -12 15 4 10 1 12 -8 6 -8 -5
-11 -4 -7 2 7 11 43 10 54 -2z m106 -4 c3 -13 1 -18 -9 -14 -7 2 -10 11 -7 19
7 19 10 18 16 -5z m59 -13 c-8 -8 -9 -4 -5 13 4 13 8 18 11 10 2 -7 -1 -18 -6
-23z m75 17 c5 -4 2 -5 -6 0 -11 6 -13 4 -8 -8 9 -23 0 -21 -13 2 -7 15 -7 19
5 17 8 -1 18 -6 22 -11z m176 1 c3 -8 0 -17 -7 -19 -10 -4 -12 1 -9 14 6 23 9
24 16 5z m-717 -29 c1 -7 -6 -13 -16 -13 -9 0 -17 6 -17 12 0 7 7 10 15 6 11
-4 13 -1 7 9 -5 8 -4 11 0 6 5 -4 10 -13 11 -20z m804 16 c0 -5 -5 -15 -10
-23 -7 -12 -9 -10 -7 8 1 19 17 33 17 15z m120 -2 c0 -5 -8 -15 -17 -22 -16
-12 -17 -12 -6 2 7 9 10 19 6 22 -3 4 -1 7 5 7 7 0 12 -4 12 -9z m-796 -20 c2
-3 -6 -6 -18 -6 -13 0 -23 5 -23 11 0 11 34 7 41 -5z m85 16 c-2 -1 -11 -8
-21 -15 -12 -10 -18 -10 -24 -1 -4 7 -3 9 4 5 6 -3 13 -2 17 4 3 5 11 10 17
10 6 0 9 -1 7 -3z m26 -6 c3 -5 2 -12 -3 -15 -5 -3 -9 1 -9 9 0 17 3 19 12 6z
m78 -6 c-3 -9 -8 -14 -10 -11 -3 3 -2 9 2 15 9 16 15 13 8 -4z m42 5 c4 -6 10
-8 15 -5 5 3 11 1 14 -4 8 -12 -14 -8 -39 7 -11 6 -15 12 -8 12 6 0 15 -5 18
-10z m278 -5 c-3 -9 -8 -14 -10 -11 -3 3 -2 9 2 15 9 16 15 13 8 -4z m48 -2
c13 -17 13 -17 -6 -3 -11 8 -22 16 -24 17 -2 2 0 3 6 3 6 0 17 -8 24 -17z
m-236 -3 c3 -6 -1 -7 -9 -4 -18 7 -21 14 -7 14 6 0 13 -4 16 -10z m55 0 c0 -5
-2 -10 -4 -10 -3 0 -8 5 -11 10 -3 6 -1 10 4 10 6 0 11 -4 11 -10z m60 6 c0
-3 -4 -8 -10 -11 -5 -3 -10 -1 -10 4 0 6 5 11 10 11 6 0 10 -2 10 -4z m300 -2
c0 -8 -19 -13 -24 -6 -3 5 1 9 9 9 8 0 15 -2 15 -3z"/>
</g>
</svg>
