<svg width="120" height="120" viewBox="0 0 120 120" fill="none" xmlns="http://www.w3.org/2000/svg">
<path d="M54.375 108.75C84.4063 108.75 108.75 84.4063 108.75 54.375C108.75 24.3437 84.4063 0 54.375 0C24.3437 0 0 24.3437 0 54.375C0 84.4063 24.3437 108.75 54.375 108.75Z" fill="black"/>
<path fill-rule="evenodd" clip-rule="evenodd" d="M31.4124 72.6069C29.7866 71.6119 28.7916 69.8447 28.7916 67.9416V57.3167C28.7916 56.0552 29.8193 55.0329 31.0808 55.0384C31.4831 55.0384 31.8801 55.1471 32.2281 55.3483L56.202 69.3281C57.6049 70.1438 58.4694 71.6445 58.4694 73.2703V84.2758C58.4749 85.7874 57.2514 87.0163 55.7398 87.0163C55.2341 87.0163 54.7339 86.8749 54.3043 86.6139L31.4124 72.6069ZM67.1477 52.4392C68.5506 53.2549 69.4097 54.761 69.4151 56.3814V78.7187C69.4151 79.3766 69.0617 79.9856 68.4853 80.3064L63.2381 83.259C63.1729 83.297 63.1022 83.3242 63.0261 83.346V70.943C63.0261 69.339 62.1833 67.8491 60.8021 67.0226L39.7481 54.4294V40.4278C39.7481 39.1663 40.7758 38.144 42.0373 38.1495C42.4397 38.1495 42.8366 38.2582 43.1846 38.4594L67.1477 52.4392ZM77.642 35.9419C79.0503 36.7575 79.9149 38.2637 79.9149 39.8895V72.5145C79.9095 73.1833 79.5397 73.7977 78.9525 74.1186L73.9772 76.8047V54.0922C73.9772 52.4882 73.1343 51.0037 71.7641 50.1772L50.2425 37.2686V23.9902C50.2425 23.5879 50.3512 23.1909 50.547 22.8429C51.1832 21.7554 52.5806 21.3857 53.6681 22.0164L77.642 35.9419Z" fill="#00D395"/>
</svg>
