<svg width="121" height="121" viewBox="0 0 121 121" fill="none" xmlns="http://www.w3.org/2000/svg">
<path fill-rule="evenodd" clip-rule="evenodd" d="M62.2306 96.9717C68.4092 94.6622 74.8274 92.984 81.2521 91.4647C86.3893 90.2489 91.5313 89.136 96.6555 87.8142C99.8541 86.9887 103.045 86.083 106.029 84.6632C108.415 83.5278 110.666 82.0663 112.519 80.2082C114.368 78.35 115.82 76.0984 116.905 73.7087C118.263 70.7215 119.051 67.5175 119.596 64.2686C120.251 60.3724 120.557 56.412 120.082 52.5335C119.606 48.655 118.349 44.8568 116.642 41.2931C114.935 37.7277 112.778 34.3985 110.213 31.421C106.791 27.4477 102.643 24.1008 98.2573 21.1618C92.7687 17.4824 86.9075 14.4407 80.8974 11.7346C74.8857 9.02844 68.7234 6.65958 62.4347 4.65368C57.4012 3.04928 52.2867 1.67775 47.0556 0.9149C43.1395 0.343162 39.1571 0.113503 35.207 0.513398C31.2619 0.913294 27.3507 1.94114 23.8168 3.70774C20.283 5.47435 17.1265 7.97811 14.4365 10.8673C11.7416 13.7597 9.51308 17.0392 7.65871 20.5098C5.80272 23.9836 4.32246 27.6501 3.19526 31.4161C2.06807 35.1838 1.29393 39.0527 0.832358 42.9569C0.218553 48.1604 0.16025 53.4248 0.594286 58.6395C1.13845 65.1551 2.4519 71.5952 3.95483 77.9903C5.45938 84.3838 7.15341 90.7356 9.7301 96.7661C11.7901 101.587 14.4138 106.206 17.8764 110.178C20.0368 112.658 22.5261 114.885 25.3262 116.631C27.5661 118.028 30.0051 119.115 32.5672 119.729C34.4912 120.19 36.4849 120.381 38.4672 120.291C40.4479 120.201 42.4188 119.828 44.2846 119.175C46.7673 118.304 49.0687 116.934 51.0866 115.245C53.6131 113.13 55.6974 110.512 57.4206 107.706C59.4904 104.34 61.0387 100.704 62.2306 96.9717Z" fill="white"/>
<path fill-rule="evenodd" clip-rule="evenodd" d="M35.0195 111.934L31.7634 110.894L28.5624 109.024L25.3215 106.265L22.6533 103.079L20.2134 99.2899L18.0799 94.9921L16.069 89.6331L13.6646 82.1828L11.4347 73.9047L10.7066 70.8727L9.61604 64.3507L9.1897 60.9481L8.71585 54.6019L8.83854 48.2818L9.61604 42.0433L10.9219 36.2357L11.7831 32.586L13.6646 27.4106L15.9446 23.1866L20.9261 16.4296L23.7707 13.9794L26.8868 11.7705L29.6496 10.3797L33.592 9.21492L40.6778 8.72383L46.7228 9.35411L53.8568 10.7881L61.7977 13.1171L70.1734 16.1074L78.5386 19.6715L79.3367 19.9418L87.4248 23.9654L94.5556 28.3377L100.091 32.8333L101.576 33.8988L106.772 39.8008L107.929 41.6743L110.653 47.9714L111.435 50.3911L111.966 53.0243L112.188 55.7198V58.6599L111.976 61.2324L110.925 66.4922L110.216 68.8292L109.343 70.8727L108.125 72.9357L106.772 74.637L105.364 75.7968L101.382 77.9664L96.727 79.5435L90.013 81.3029L83.5295 82.8902L75.7406 84.7518L70.0522 86.3058L67.9043 86.8223L60.5376 89.1637L57.0664 90.4884L55.5559 91.0437L55.1238 93.1518L54.2315 95.7437L53.4368 97.9458L52.5697 99.8287L50.4898 103.758L47.9487 107.02L45.1994 109.438L41.394 111.432L38.172 112.061L35.0195 111.934Z" fill="url(#paint0_linear)"/>
<path d="M52.3102 38.5501L51.4122 39.7906L52.1746 46.0634L52.8802 44.6026L52.3102 38.5501Z" fill="#FBF100"/>
<path d="M40.679 8.64601L35.8904 8.9394L38.2542 9.78382L42.4518 9.49045L40.679 8.64601Z" fill="#A40000"/>
<path d="M51.47 32.6748L50.2897 33.705L51.4117 39.7898L52.3097 38.5494L51.47 32.6748Z" fill="#FFAE00"/>
<path d="M42.452 9.49065L38.2543 9.78402L40.6216 11.651L44.2268 11.3189L42.452 9.49065Z" fill="#A80000"/>
<path d="M50.3821 27.1437L48.8367 27.98L50.2897 33.7062L51.47 32.676L50.3821 27.1437Z" fill="#FF7300"/>
<path d="M44.225 11.3186L40.6199 11.6507L42.9246 14.4935L45.9526 14.0848L44.225 11.3186Z" fill="#B60000"/>
<path d="M49.0744 22.1083L47.091 22.773L48.836 27.9788L50.3813 27.1425L49.0744 22.1083Z" fill="#FF3F00"/>
<path d="M45.9533 14.0854L42.9253 14.494L45.1028 18.2362L47.585 17.7156L45.9533 14.0854Z" fill="#D60000"/>
<path d="M47.5838 17.7141L45.1016 18.2347L47.0905 22.7727L49.0739 22.108L47.5838 17.7141Z" fill="#FF1300"/>
<path d="M61.9559 58.2171L57.8023 59.0898L57.5995 63.7712L61.9117 62.6434L61.9559 58.2171Z" fill="#16FFE1"/>
<path d="M61.9931 53.4192L57.9145 54.0033L57.8028 59.0899L61.9564 58.2172L61.9931 53.4192Z" fill="#4DFFAA"/>
<path d="M62.0232 48.3738L57.9329 48.6433L57.916 54.0034L61.9946 53.4194L62.0232 48.3738Z" fill="#80FF77"/>
<path d="M62.0408 43.2143L57.8517 43.1521L57.9312 48.644L62.0215 48.3744L62.0408 43.2143Z" fill="#B7FF40"/>
<path d="M62.0509 38.0795L57.6775 37.6778L57.8519 43.153L62.0411 43.2152L62.0509 38.0795Z" fill="#EBFF0C"/>
<path d="M61.7982 13.0105L53.8569 10.7257L54.4505 11.4769L61.8547 13.6776L61.7982 13.0105Z" fill="#ED0400"/>
<path d="M62.0507 33.1083L57.4124 32.369L57.6778 37.6776L62.0512 38.0794L62.0507 33.1083Z" fill="#FFCC00"/>
<path d="M61.8531 13.6794L54.449 11.4786L55.0401 13.1186L61.9051 15.1815L61.8531 13.6794Z" fill="#F10800"/>
<path d="M62.0407 28.4392L57.0633 27.3746L57.4129 32.3688L62.0511 33.1081L62.0407 28.4392Z" fill="#FF9800"/>
<path d="M61.9057 15.1802L55.0407 13.1173L55.613 15.6049L61.9513 17.4795L61.9057 15.1802Z" fill="#FF1300"/>
<path d="M62.0209 24.2012L56.6396 22.833L57.064 27.3738L62.0414 28.4384L62.0209 24.2012Z" fill="#FF6C00"/>
<path d="M61.9507 17.4788L55.6124 15.6042L56.1499 18.8727L61.989 20.5136L61.9507 17.4788Z" fill="#FF2900"/>
<path d="M61.9908 20.5156L56.1516 18.8748L56.6393 22.8347L62.0206 24.2029L61.9908 20.5156Z" fill="#FF4700"/>
<path d="M57.8045 59.0914L54.744 60.422L54.3669 65.3444L57.6017 63.7729L57.8045 59.0914Z" fill="#13FCE4"/>
<path d="M57.9145 54.0037L54.9383 55.065L54.7424 60.4209L57.8029 59.0903L57.9145 54.0037Z" fill="#49FFAD"/>
<path d="M57.932 48.6436L54.7424 49.4148L54.9389 55.065L57.9151 54.0037L57.932 48.6436Z" fill="#80FF77"/>
<path d="M57.8522 43.1524L54.7627 43.6192L54.946 49.4149L57.9317 48.6442L57.8522 43.1524Z" fill="#BAFF3C"/>
<path d="M57.677 37.6783L54.3912 37.8364L54.7619 43.6203L57.8514 43.1535L57.677 37.6783Z" fill="#F1FC06"/>
<path d="M53.8558 10.7266L46.723 9.25065L47.8966 10.0627L54.4495 11.4778L53.8558 10.7266Z" fill="#D10000"/>
<path d="M57.4118 32.3676L53.8419 32.2214L54.3913 37.8341L57.6771 37.676L57.4118 32.3676Z" fill="#FFC100"/>
<path d="M54.451 11.4771L47.8981 10.0619L49.0716 11.8127L55.0423 13.117L54.451 11.4771Z" fill="#D60000"/>
<path d="M57.0644 27.3741L53.1301 26.9368L53.8441 32.2221L57.414 32.3684L57.0644 27.3741Z" fill="#FF8900"/>
<path d="M55.041 13.117L49.0703 11.8127L50.2111 14.4583L55.6131 15.6044L55.041 13.117Z" fill="#E40000"/>
<path d="M56.6391 22.834L52.2697 22.1278L53.1292 26.9373L57.0635 27.3746L56.6391 22.834Z" fill="#FF5D00"/>
<path d="M55.6137 15.6061L50.2117 14.46L51.2879 17.93L56.1512 18.8748L55.6137 15.6061Z" fill="#FF1300"/>
<path d="M56.1516 18.8732L51.2882 17.9284L52.2697 22.1268L56.6392 22.833L56.1516 18.8732Z" fill="#FF3400"/>
<path d="M66.9727 57.8134L61.9573 58.2192L61.9132 62.6455L67.0666 61.9747L66.9727 57.8134Z" fill="#1CFFDB"/>
<path d="M66.9452 53.3152L61.9938 53.4192L61.957 58.2173L66.9723 57.8114L66.9452 53.3152Z" fill="#50FFA7"/>
<path d="M66.9877 48.6015L62.0236 48.3745L61.995 53.4203L66.9464 53.3164L66.9877 48.6015Z" fill="#80FF77"/>
<path d="M67.0951 43.7913L62.0417 43.2136L62.0223 48.3736L66.9864 48.6005L67.0951 43.7913Z" fill="#B4FF43"/>
<path d="M67.2701 39.0182L62.0524 38.0797L62.0427 43.2154L67.0961 43.7931L67.2701 39.0182Z" fill="#E4FF13"/>
<path d="M67.5052 34.4063L62.052 33.1075L62.0525 38.0784L67.2702 39.017L67.5052 34.4063Z" fill="#FFD700"/>
<path d="M70.1736 16.01L61.7979 13.0122L61.8546 13.6793L69.7549 16.5758L70.1736 16.01Z" fill="#FF1E00"/>
<path d="M67.7955 30.0864L62.0419 28.4384L62.0524 33.1074L67.5057 34.4063L67.7955 30.0864Z" fill="#FFA700"/>
<path d="M69.756 16.5747L61.8557 13.6781L61.9076 15.1803L69.331 17.9193L69.756 16.5747Z" fill="#FF1E00"/>
<path d="M68.1304 26.1778L62.0192 24.2021L62.0396 28.4392L67.7932 30.0872L68.1304 26.1778Z" fill="#FF7E00"/>
<path d="M69.331 17.9197L61.9076 15.1807L61.9533 17.4799L68.9111 20.0091L69.331 17.9197Z" fill="#FF2900"/>
<path d="M68.5057 22.7869L61.9893 20.5146L62.0191 24.2018L68.1303 26.1775L68.5057 22.7869Z" fill="#FF5900"/>
<path d="M68.9107 20.0077L61.953 17.4785L61.9913 20.5133L68.5076 22.7855L68.9107 20.0077Z" fill="#FF3B00"/>
<path d="M54.9259 91.1109L61.6661 88.5629L60.3222 89.2769L53.4845 91.8782L54.9259 91.1109Z" fill="#00CCFF"/>
<path d="M56.2437 89.9467L62.8961 87.481L61.6663 88.5636L54.9261 91.1117L56.2437 89.9467Z" fill="#00DCFE"/>
<path d="M57.4018 88.411L63.9787 86.0548L62.8949 87.4798L56.2425 89.9455L57.4018 88.411Z" fill="#09F0EE"/>
<path d="M58.3721 86.5459L64.888 84.3239L63.9785 86.0565L57.4016 88.4127L58.3721 86.5459Z" fill="#1CFFDB"/>
<path d="M59.1297 84.3933L65.6003 82.327L64.8895 84.3239L58.3736 86.5459L59.1297 84.3933Z" fill="#33FFC4"/>
<path d="M59.65 82.0081L66.0928 80.1151L65.6001 82.3259L59.1295 84.3922L59.65 82.0081Z" fill="#4DFFAA"/>
<path d="M59.9201 79.4543L66.3532 77.748L66.0924 80.1163L59.6496 82.0093L59.9201 79.4543Z" fill="#63FF94"/>
<path d="M59.9325 76.7941L66.3746 75.283L66.3537 77.7476L59.9206 79.4539L59.9325 76.7941Z" fill="#7DFF7A"/>
<path d="M59.6825 74.0993L66.1524 72.7868L66.3731 75.2833L59.931 76.7944L59.6825 74.0993Z" fill="#97FF60"/>
<path d="M59.1797 71.439L65.6953 70.3232L66.1527 72.7861L59.6828 74.0986L59.1797 71.439Z" fill="#B1FF46"/>
<path d="M58.4344 68.8854L65.0126 67.9591L65.6955 70.3229L59.1799 71.4387L58.4344 68.8854Z" fill="#C7FF30"/>
<path d="M57.4643 66.5073L64.1205 65.758L65.0115 67.9598L58.4334 68.8861L57.4643 66.5073Z" fill="#DEFF19"/>
<path d="M48.7089 58.9527L56.0175 58.768L57.5197 59.011L50.3269 59.2155L48.7089 58.9527Z" fill="#FFCC00"/>
<path d="M56.2989 64.3673L63.0466 63.7776L64.1226 65.7582L57.4664 66.5075L56.2989 64.3673Z" fill="#F1FC06"/>
<path d="M50.3269 59.2153L57.5197 59.0107L59.0128 59.6549L51.9372 59.9116L50.3269 59.2153Z" fill="#FFCC00"/>
<path d="M54.9635 62.522L61.8135 62.07L63.046 63.7763L56.2983 64.366L54.9635 62.522Z" fill="#FFEA00"/>
<path d="M51.9374 59.9113L59.013 59.6546L60.457 60.6834L53.4967 61.0233L51.9374 59.9113Z" fill="#FFD000"/>
<path d="M53.4954 61.0235L60.4557 60.6835L61.812 62.0696L54.9621 62.5216L53.4954 61.0235Z" fill="#FFDB00"/>
<path d="M54.7636 43.6179L52.8802 44.601L53.1671 50.6646L54.9469 49.4135L54.7636 43.6179Z" fill="#BEFF39"/>
<path d="M54.3935 37.8343L52.3109 38.5488L52.8808 44.6015L54.7642 43.6183L54.3935 37.8343Z" fill="#F8F500"/>
<path d="M46.7234 9.25043L40.6779 8.64588L42.4508 9.49032L47.8971 10.0624L46.7234 9.25043Z" fill="#BB0000"/>
<path d="M53.8433 32.2216L51.4703 32.6745L52.31 38.549L54.3927 37.8345L53.8433 32.2216Z" fill="#FFB900"/>
<path d="M47.8963 10.0628L42.45 9.49066L44.2249 11.3189L49.07 11.8135L47.8963 10.0628Z" fill="#BF0000"/>
<path d="M53.128 26.9358L50.3811 27.1418L51.469 32.6741L53.842 32.2212L53.128 26.9358Z" fill="#FF7E00"/>
<path d="M49.0718 11.814L44.2267 11.3194L45.9542 14.0856L50.2126 14.4597L49.0718 11.814Z" fill="#CD0000"/>
<path d="M52.2701 22.128L49.0758 22.1095L50.3828 27.1436L53.1297 26.9376L52.2701 22.128Z" fill="#FF4E00"/>
<path d="M50.2121 14.4593L45.9537 14.0852L47.5854 17.7154L51.2883 17.9292L50.2121 14.4593Z" fill="#E80000"/>
<path d="M51.2873 17.9296L47.5844 17.7158L49.0745 22.1096L52.2688 22.1281L51.2873 17.9296Z" fill="#FF2200"/>
<path d="M50.7622 92.5647L56.2442 89.9459L54.9267 91.1108L49.3339 93.8312L50.7622 92.5647Z" fill="#00D0FF"/>
<path d="M52.0152 90.8952L57.4012 88.4116L56.2419 89.9462L50.7599 92.565L52.0152 90.8952Z" fill="#00E4F8"/>
<path d="M53.0657 88.8617L58.3734 86.5439L57.4028 88.4107L52.0168 90.8943L53.0657 88.8617Z" fill="#16FFE1"/>
<path d="M53.8807 86.5185L59.1296 84.3932L58.3737 86.5458L53.066 88.8635L53.8807 86.5185Z" fill="#2CFFCA"/>
<path d="M54.4385 83.9202L59.6499 82.0093L59.1294 84.3934L53.8804 86.5188L54.4385 83.9202Z" fill="#46FFB1"/>
<path d="M54.7235 81.1336L59.9199 79.4537L59.6495 82.0087L54.438 83.9195L54.7235 81.1336Z" fill="#63FF94"/>
<path d="M54.7262 78.2306L59.9312 76.7925L59.9194 79.4522L54.7229 81.1321L54.7262 78.2306Z" fill="#7DFF7A"/>
<path d="M54.446 75.2905L59.6825 74.0984L59.9308 76.7935L54.7259 78.2317L54.446 75.2905Z" fill="#9AFF5D"/>
<path d="M53.8883 72.3875L59.179 71.4391L59.6821 74.0986L54.4457 75.2908L53.8883 72.3875Z" fill="#B7FF40"/>
<path d="M53.0681 69.5985L58.4346 68.885L59.1802 71.4382L53.8895 72.3866L53.0681 69.5985Z" fill="#D1FF26"/>
<path d="M52.0052 67.0002L57.4668 66.506L58.4359 68.8848L53.0694 69.5983L52.0052 67.0002Z" fill="#E7FF0F"/>
<path d="M50.7247 64.662L56.2982 64.3657L57.4656 66.5058L52.004 67L50.7247 64.662Z" fill="#FBF100"/>
<path d="M49.2643 62.6482L54.9639 62.5226L56.2987 64.3666L50.7251 64.6629L49.2643 62.6482Z" fill="#FFDB00"/>
<path d="M13.0926 80.3633L14.0227 83.3906L12.4578 77.4383L11.4942 74.2849L13.0926 80.3633Z" fill="#00B4FF"/>
<path d="M10.6568 70.8727L11.5183 74.3964L12.4582 77.4383L11.4333 71.2708L9.97993 66.118L10.6568 70.8727Z" fill="#16FFE1"/>
<path d="M10.4467 67.9835L11.4339 71.2694L10.9798 65.0377L9.97993 61.6158L10.4467 67.9835Z" fill="#56FFA0"/>
<path d="M9.97903 61.6153L10.9789 65.0372L11.1134 58.8971L10.1121 55.3392L9.97903 61.6153Z" fill="#97FF60"/>
<path d="M10.114 55.3388L11.1153 58.8967L11.842 53.0056L10.851 49.3149L10.114 55.3388Z" fill="#D4FF23"/>
<path d="M10.8492 49.3148L11.8402 53.0055L13.1477 47.5183L12.1786 43.7016L10.8492 49.3148Z" fill="#FFD700"/>
<path d="M12.1797 43.7021L13.1488 47.5188L15.0103 42.5838L14.0746 38.6514L12.1797 43.7021Z" fill="#FF9400"/>
<path d="M14.0755 38.6516L15.0111 42.584L17.3845 38.338L16.493 34.3035L14.0755 38.6516Z" fill="#FF5900"/>
<path d="M16.4913 34.3046L17.3828 38.3391L20.2107 34.9043L19.3732 30.7844L16.4913 34.3046Z" fill="#FF2500"/>
<path d="M56.6792 62.9602L56.7741 66.4438L57.3715 72.8417L57.2891 69.5006L56.6792 62.9602Z" fill="#C1FF36"/>
<path d="M19.3746 30.7848L20.2121 34.9047L23.4231 32.3829L22.6482 28.1974L19.3746 30.7848Z" fill="#DF0000"/>
<path d="M55.4515 56.4831L55.5712 60.1076L56.7745 66.4434L56.6796 62.9598L55.4515 56.4831Z" fill="#FFEA00"/>
<path d="M22.6483 28.1966L23.4232 32.3821L26.9338 30.8512L26.2283 26.6219L22.6483 28.1966Z" fill="#BB0000"/>
<path d="M53.6333 50.2486L53.7899 54.0081L55.5719 60.1078L55.4521 56.4833L53.6333 50.2486Z" fill="#FFA700"/>
<path d="M26.2269 26.6211L26.9324 30.8505L30.6486 30.3615L30.0175 26.1118L26.2269 26.6211Z" fill="#9F0000"/>
<path d="M51.2701 44.4304L51.4745 48.3153L53.7908 54.0088L53.6343 50.2493L51.2701 44.4304Z" fill="#FF6C00"/>
<path d="M30.018 26.1109L30.6491 30.3606L34.4693 30.9344L33.9155 26.6885L30.018 26.1109Z" fill="#920000"/>
<path d="M48.4214 39.1915L48.6835 43.1878L51.4734 48.3141L51.269 44.4293L48.4214 39.1915Z" fill="#FF3400"/>
<path d="M33.9142 26.6904L34.468 30.9364L38.2865 32.5629L37.8106 28.3454L33.9142 26.6904Z" fill="#960000"/>
<path d="M45.1679 34.6836L45.4958 38.7745L48.6836 43.1882L48.4215 39.1919L45.1679 34.6836Z" fill="#F10800"/>
<path d="M37.8105 28.3452L38.2864 32.5626L41.9967 35.2001L41.5968 31.0349L37.8105 28.3452Z" fill="#A40000"/>
<path d="M41.5967 31.0351L41.9966 35.2003L45.4945 38.776L45.1666 34.6851L41.5967 31.0351Z" fill="#C40000"/>
<path d="M9.59388 64.4937L10.4475 67.9844L9.9807 61.6167L9.1188 58.0442L9.59388 64.4937Z" fill="#53FFA4"/>
<path d="M9.1186 58.0438L9.98051 61.6163L10.1136 55.3402L9.2496 51.6855L9.1186 58.0438Z" fill="#97FF60"/>
<path d="M9.2487 51.6854L10.1127 55.3401L10.8497 49.3162L9.98989 45.5807L9.2487 51.6854Z" fill="#D7FF1F"/>
<path d="M9.98876 45.5797L10.8485 49.3152L12.178 43.7019L11.3289 39.8894L9.98876 45.5797Z" fill="#FFD300"/>
<path d="M11.3294 39.8901L12.1785 43.7026L14.0734 38.6517L13.2413 34.7676L11.3294 39.8901Z" fill="#FF9100"/>
<path d="M13.2423 34.7679L14.0744 38.652L16.4919 34.3039L15.6828 30.3562L13.2423 34.7679Z" fill="#FF5200"/>
<path d="M15.6831 30.3564L16.4922 34.3042L19.3741 30.7842L18.5935 26.7825L15.6831 30.3564Z" fill="#FF1E00"/>
<path d="M18.5917 26.7822L19.3723 30.7839L22.6459 28.1963L21.8986 24.1519L18.5917 26.7822Z" fill="#D60000"/>
<path d="M21.9004 24.1517L22.6476 28.196L26.2276 26.6213L25.5176 22.5472L21.9004 24.1517Z" fill="#AD0000"/>
<path d="M53.2255 46.4318L53.6328 50.2483L55.4516 56.483L55.0655 52.746L53.2255 46.4318Z" fill="#FFA300"/>
<path d="M25.5163 22.5467L26.2263 26.6207L30.0168 26.1113L29.3471 22.0213L25.5163 22.5467Z" fill="#920000"/>
<path d="M50.8346 40.5415L51.2691 44.4313L53.6333 50.2499L53.226 46.4334L50.8346 40.5415Z" fill="#FF6400"/>
<path d="M29.3477 22.0215L30.0174 26.1114L33.9149 26.6892L33.2872 22.598L29.3477 22.0215Z" fill="#840000"/>
<path d="M47.9539 35.2384L48.4207 39.1926L51.2681 44.4306L50.8337 40.5408L47.9539 35.2384Z" fill="#FF2D00"/>
<path d="M33.2864 22.5988L33.9141 26.6899L37.8103 28.3449L37.2253 24.2673L33.2864 22.5988Z" fill="#890000"/>
<path d="M44.6653 30.6761L45.1687 34.6843L48.4223 39.1925L47.9555 35.2384L44.6653 30.6761Z" fill="#E40000"/>
<path d="M37.2252 24.2681L37.8103 28.3456L41.5965 31.0351L41.0533 26.9855L37.2252 24.2681Z" fill="#9B0000"/>
<path d="M41.054 26.9853L41.5972 31.0349L45.1671 34.6851L44.6637 30.677L41.054 26.9853Z" fill="#BB0000"/>
<path d="M10.1914 67.352L10.6565 70.8727L9.59396 64.4936L9.12516 60.9481L10.1914 67.352Z" fill="#13FCE4"/>
<path d="M12.4599 77.4382L13.3552 80.2009L12.3622 74.2169L11.435 71.2706L12.4599 77.4382Z" fill="#19FFDE"/>
<path d="M11.4345 71.2706L12.3617 74.2169L11.9239 68.1727L10.9805 65.0386L11.4345 71.2706Z" fill="#56FFA0"/>
<path d="M10.9793 65.0386L11.9228 68.1727L12.0571 62.2199L11.1138 58.8988L10.9793 65.0386Z" fill="#94FF63"/>
<path d="M11.1143 58.8982L12.0576 62.2193L12.7672 56.5102L11.8409 53.0071L11.1143 58.8982Z" fill="#D1FF26"/>
<path d="M11.842 53.0057L12.7683 56.5088L14.042 51.1938L13.1495 47.5185L11.842 53.0057Z" fill="#FFDB00"/>
<path d="M13.1476 47.5191L14.0401 51.1944L15.8515 46.4166L15.0091 42.5838L13.1476 47.5191Z" fill="#FF9C00"/>
<path d="M15.0105 42.585L15.8529 46.4179L18.1608 42.3101L17.3838 38.3393L15.0105 42.585Z" fill="#FF6000"/>
<path d="M17.3838 38.3397L18.1607 42.3105L20.9091 38.9901L20.2116 34.9049L17.3838 38.3397Z" fill="#FF3000"/>
<path d="M56.7743 66.4455L56.4081 69.6174L56.9895 75.8185L57.3717 72.8434L56.7743 66.4455Z" fill="#C1FF36"/>
<path d="M20.2097 34.9041L20.9073 38.9893L24.027 36.5545L23.4209 32.3824L20.2097 34.9041Z" fill="#F10800"/>
<path d="M55.5713 60.1095L55.2391 63.4764L56.4084 69.6172L56.7746 66.4453L55.5713 60.1095Z" fill="#FBF100"/>
<path d="M23.4208 32.3826L24.0269 36.5547L27.4365 35.0806L26.9313 30.8517L23.4208 32.3826Z" fill="#C80000"/>
<path d="M53.7908 54.0087L53.5099 57.5634L55.2406 63.4753L55.5728 60.1084L53.7908 54.0087Z" fill="#FFAE00"/>
<path d="M26.9319 30.8518L27.4371 35.0806L31.0455 34.6159L30.6481 30.3627L26.9319 30.8518Z" fill="#AD0000"/>
<path d="M51.4723 48.3167L51.2588 52.046L53.5078 57.5646L53.7887 54.01L51.4723 48.3167Z" fill="#FF7300"/>
<path d="M30.6481 30.3614L31.0455 34.6146L34.7542 35.1791L34.4683 30.9353L30.6481 30.3614Z" fill="#A40000"/>
<path d="M48.6839 43.1895L48.5521 47.0751L51.2602 52.0451L51.4737 48.3158L48.6839 43.1895Z" fill="#FF3F00"/>
<path d="M34.4694 30.9361L34.7552 35.1798L38.4617 36.7633L38.2878 32.5626L34.4694 30.9361Z" fill="#A40000"/>
<path d="M45.4954 38.7755L45.4573 42.7943L48.5515 47.0747L48.6834 43.1892L45.4954 38.7755Z" fill="#FF1300"/>
<path d="M38.2881 32.5634L38.4619 36.764L42.0628 39.3257L41.9981 35.2006L38.2881 32.5634Z" fill="#B60000"/>
<path d="M41.9968 35.1989L42.0615 39.324L45.4564 42.7937L45.4946 38.7749L41.9968 35.1989Z" fill="#D10000"/>
<path d="M14.0227 83.3902L14.8715 85.9778L13.3531 80.2006L12.4579 77.4378L14.0227 83.3902Z" fill="#00BCFF"/>
<path d="M14.873 85.9762L15.5325 88.0236L14.0724 82.4668L13.3547 80.199L14.873 85.9762Z" fill="#00C4FF"/>
<path d="M13.355 80.1999L14.0726 82.4676L13.119 76.7139L12.362 74.216L13.355 80.1999Z" fill="#1CFFDB"/>
<path d="M12.3598 74.2156L13.1168 76.7136L12.698 70.9044L11.922 68.1714L12.3598 74.2156Z" fill="#56FFA0"/>
<path d="M11.9221 68.1718L12.6981 70.9049L12.8303 65.1859L12.0565 62.219L11.9221 68.1718Z" fill="#94FF63"/>
<path d="M12.0571 62.2198L12.8309 65.1867L13.5169 59.7045L12.7668 56.5107L12.0571 62.2198Z" fill="#CEFF29"/>
<path d="M55.1938 93.1518L54.3424 94.9661L52.7064 99.6364L53.4905 98.012L55.1938 93.1518Z" fill="#00B0FF"/>
<path d="M12.7673 56.5104L13.5174 59.7042L14.7458 54.6029L14.041 51.1954L12.7673 56.5104Z" fill="#FFE200"/>
<path d="M56.3692 87.7397L55.4699 89.7664L54.3444 94.9655L55.1959 93.1512L56.3692 87.7397Z" fill="#0CF4EB"/>
<path d="M14.0404 51.1949L14.7452 54.6024L16.4905 50.0196L15.8519 46.4171L14.0404 51.1949Z" fill="#FFA300"/>
<path d="M56.9744 81.9115L56.0485 84.1678L55.469 89.766L56.3683 87.7393L56.9744 81.9115Z" fill="#46FFB1"/>
<path d="M15.8534 46.4169L16.4921 50.0194L18.7143 46.0818L18.1612 42.3089L15.8534 46.4169Z" fill="#FF6C00"/>
<path d="M56.9893 75.8181L56.0594 78.3156L56.0475 84.1689L56.9734 81.9125L56.9893 75.8181Z" fill="#80FF77"/>
<path d="M18.1592 42.3102L18.7123 46.0831L21.3574 42.9032L20.9077 38.9899L18.1592 42.3102Z" fill="#FF3B00"/>
<path d="M56.409 69.6159L55.4983 72.3596L56.0605 78.3145L56.9904 75.817L56.409 69.6159Z" fill="#BEFF39"/>
<path d="M20.9076 38.9886L21.3573 42.9019L24.3586 40.5731L24.0272 36.5538L20.9076 38.9886Z" fill="#FF1300"/>
<path d="M55.2389 63.4756L54.3704 66.4638L55.4974 72.3602L56.4082 69.6165L55.2389 63.4756Z" fill="#F8F500"/>
<path d="M24.0288 36.5538L24.3601 40.5731L27.6391 39.1668L27.4382 35.0796L24.0288 36.5538Z" fill="#DA0000"/>
<path d="M53.5083 57.5632L52.7042 60.7869L54.3704 66.4633L55.239 63.4751L53.5083 57.5632Z" fill="#FFB600"/>
<path d="M27.4374 35.08L27.6382 39.1672L31.1076 38.7295L31.0456 34.6153L27.4374 35.08Z" fill="#C40000"/>
<path d="M51.2599 52.0445L50.5411 55.4882L52.7048 60.7871L53.5089 57.5634L51.2599 52.0445Z" fill="#FF7E00"/>
<path d="M31.0458 34.6143L31.1079 38.7285L34.6733 39.2781L34.7546 35.1788L31.0458 34.6143Z" fill="#B60000"/>
<path d="M48.5517 47.0758L47.9366 50.7169L50.5412 55.4895L51.26 52.0458L48.5517 47.0758Z" fill="#FF4A00"/>
<path d="M34.7547 35.1789L34.6734 39.2783L38.2363 40.8048L38.4612 36.7625L34.7547 35.1789Z" fill="#BB0000"/>
<path d="M45.4582 42.7956L44.9624 46.6053L47.9374 50.7171L48.5525 47.076L45.4582 42.7956Z" fill="#FF1E00"/>
<path d="M38.4609 36.7617L38.236 40.8041L41.6974 43.2684L42.0619 39.3233L38.4609 36.7617Z" fill="#C80000"/>
<path d="M42.0619 39.3255L41.6975 43.2705L44.961 46.605L45.4569 42.7952L42.0619 39.3255Z" fill="#E40000"/>
<path d="M47.2384 90.769L54.5152 88.2562L53.1393 87.0681L45.7539 89.487L47.2384 90.769Z" fill="#00C4FF"/>
<path d="M45.753 89.4884L53.1385 87.0695L51.8639 85.5547L44.376 87.8544L45.753 89.4884Z" fill="#00D0FF"/>
<path d="M44.3777 87.8536L51.8656 85.554L50.7246 83.7504L43.1426 85.9084L44.3777 87.8536Z" fill="#00E0FB"/>
<path d="M43.1421 85.9092L50.7241 83.7511L49.7455 81.7036L42.08 83.7012L43.1421 85.9092Z" fill="#0FF8E7"/>
<path d="M40.9766 93.4465L47.2386 90.7697L45.7543 89.4876L39.3585 92.0485L40.9766 93.4465Z" fill="#00B4FF"/>
<path d="M39.3584 92.0496L45.7543 89.4887L44.3772 87.8547L37.8553 90.2683L39.3584 92.0496Z" fill="#00C0FF"/>
<path d="M42.6696 94.4275L48.7934 91.6684L47.2389 90.7704L40.9769 93.4472L42.6696 94.4275Z" fill="#00A8FF"/>
<path d="M42.0793 83.6999L49.7448 81.7023L48.9536 79.462L41.2175 81.2841L42.0793 83.6999Z" fill="#23FFD4"/>
<path d="M37.8556 90.2687L44.3775 87.855L43.1423 85.9098L36.5049 88.1488L37.8556 90.2687Z" fill="#00D4FF"/>
<path d="M44.3952 94.965L50.3794 92.1596L48.7938 91.6685L42.67 94.4276L44.3952 94.965Z" fill="#00A8FF"/>
<path d="M36.5051 88.1484L43.1425 85.9094L42.0804 83.7015L35.3412 85.7424L36.5051 88.1484Z" fill="#06ECF1"/>
<path d="M41.2164 81.2848L48.9525 79.4628L48.3692 77.0859L40.5772 78.7215L41.2164 81.2848Z" fill="#39FFBE"/>
<path d="M46.108 95.0441L51.9549 92.2295L50.3778 92.1585L44.3937 94.9638L46.108 95.0441Z" fill="#00A8FF"/>
<path d="M35.3396 85.7408L42.0788 83.6999L41.217 81.2841L34.392 83.1082L35.3396 85.7408Z" fill="#1CFFDB"/>
<path d="M40.5787 78.7211L48.3707 77.0854L48.0109 74.6317L40.1791 76.0747L40.5787 78.7211Z" fill="#53FFA4"/>
<path d="M34.392 83.1103L41.2169 81.2861L40.5777 78.7227L33.6854 80.3166L34.392 83.1103Z" fill="#36FFC1"/>
<path d="M40.1786 76.0759L48.0104 74.6329L47.8841 72.1646L40.0298 73.4133L40.1786 76.0759Z" fill="#6DFF8A"/>
<path d="M33.6867 80.3163L40.5789 78.7224L40.1793 76.076L33.2398 77.4318L33.6867 80.3163Z" fill="#50FFA7"/>
<path d="M40.0287 73.4131L47.883 72.1644L47.9946 69.7447L40.1358 70.8025L40.0287 73.4131Z" fill="#87FF70"/>
<path d="M33.2389 77.4306L40.1784 76.0748L40.0296 73.4124L33.0646 74.5279L33.2389 77.4306Z" fill="#6AFF8D"/>
<path d="M40.1361 70.8024L47.9949 69.7445L48.3425 67.4358L40.4975 68.3111L40.1361 70.8024Z" fill="#A0FF56"/>
<path d="M33.0639 74.5277L40.0289 73.4121L40.1359 70.8014L33.1677 71.6808L33.0639 74.5277Z" fill="#87FF70"/>
<path d="M40.4988 68.3105L48.3439 67.4352L48.9197 65.2977L41.1067 66.0034L40.4988 68.3105Z" fill="#B7FF40"/>
<path d="M33.169 71.6818L40.1373 70.8024L40.4987 68.3111L33.5499 68.9643L33.169 71.6818Z" fill="#A4FF53"/>
<path d="M41.1065 66.0046L48.9196 65.2989L49.7098 63.3889L41.9462 63.9428L41.1065 66.0046Z" fill="#D1FF26"/>
<path d="M33.5489 68.9645L40.4977 68.3112L41.1055 66.0042L34.1987 66.4474L33.5489 68.9645Z" fill="#BEFF39"/>
<path d="M41.9468 63.9413L49.7104 63.3874L50.6954 61.756L42.9976 62.1798L41.9468 63.9413Z" fill="#E4FF13"/>
<path d="M34.1991 66.448L41.1059 66.0048L41.9456 63.9429L35.1026 64.1977L34.1991 66.448Z" fill="#D7FF1F"/>
<path d="M35.102 64.1964L41.945 63.9417L42.9959 62.1802L36.237 62.2734L35.102 64.1964Z" fill="#EEFF09"/>
<path d="M36.2373 62.2743L42.9962 62.1811L44.2318 60.7677L37.5749 60.7309L36.2373 62.2743Z" fill="#FFEA00"/>
<path d="M37.5753 60.7311L44.2322 60.7679L45.6208 59.7416L39.0816 59.61L37.5753 60.7311Z" fill="#FFD700"/>
<path d="M28.5622 109.024L28.2273 108.77L25.3293 106.263L25.4972 106.373L28.5622 109.024Z" fill="#0000FF"/>
<path d="M25.4962 106.374L25.3283 106.264L22.6282 103.079L22.6405 103.005L25.4962 106.374Z" fill="#0010FF"/>
<path d="M31.7633 110.894L31.2537 110.538L28.2282 108.771L28.5631 109.025L31.7633 110.894Z" fill="#0000F1"/>
<path d="M22.6404 103.005L22.628 103.079L20.1914 99.2915L20.0632 98.999L22.6404 103.005Z" fill="#0038FF"/>
<path d="M35.0195 111.934L34.3314 111.521L31.2517 110.538L31.7613 110.894L35.0195 111.934Z" fill="#0000E8"/>
<path d="M20.0645 98.9975L20.1927 99.29L18.0798 94.9906L17.8292 94.4491L20.0645 98.9975Z" fill="#0064FF"/>
<path d="M38.2581 112.118L37.3919 111.694L34.3329 111.522L35.021 111.935L38.2581 112.118Z" fill="#0000ED"/>
<path d="M17.8289 94.4499L18.0794 94.9914L16.3433 90.2829L15.9916 89.4676L17.8289 94.4499Z" fill="#0098FF"/>
<path d="M41.394 111.434L40.3539 111.047L37.3905 111.694L38.2567 112.118L41.394 111.434Z" fill="#0000FF"/>
<path d="M15.9908 89.4686L16.3425 90.284L15.0282 85.2801L14.5993 84.172L15.9908 89.4686Z" fill="#00D4FF"/>
<path d="M44.3549 109.894L43.1496 109.59L40.3557 111.045L41.3957 111.433L44.3549 109.894Z" fill="#0008FF"/>
<path d="M14.6002 84.1705L15.0291 85.2785L14.1723 80.101L13.6922 78.688L14.6002 84.1705Z" fill="#26FFD1"/>
<path d="M47.0607 107.531L45.7027 107.356L43.1492 109.59L44.3545 109.894L47.0607 107.531Z" fill="#002CFF"/>
<path d="M13.6924 78.6889L14.1725 80.1019L13.7986 74.8788L13.295 73.1559L13.6924 78.6889Z" fill="#5AFF9D"/>
<path d="M49.4442 104.395L47.9501 104.393L45.703 107.356L47.061 107.531L49.4442 104.395Z" fill="#0054FF"/>
<path d="M13.2949 73.1555L13.7984 74.8784L13.9212 69.7412L13.423 67.711L13.2949 73.1555Z" fill="#90FF66"/>
<path d="M51.4397 100.558L49.8297 100.769L47.9491 104.393L49.4431 104.395L51.4397 100.558Z" fill="#0088FF"/>
<path d="M13.4224 67.7111L13.9205 69.7414L14.5418 64.8219L14.0784 62.4946L13.4224 67.7111Z" fill="#C7FF30"/>
<path d="M52.9953 96.1093L51.2931 96.5686L49.8308 100.768L51.4407 100.557L52.9953 96.1093Z" fill="#00C4FF"/>
<path d="M14.08 62.4949L14.5434 64.8223L15.6526 60.2498L15.2529 57.6436L14.08 62.4949Z" fill="#FBF100"/>
<path d="M54.063 91.1579L52.2952 91.8953L51.2933 96.5676L52.9955 96.1083L54.063 91.1579Z" fill="#16FFE1"/>
<path d="M15.2529 57.6424L15.6525 60.2487L17.2257 56.1461L16.9178 53.2867L15.2529 57.6424Z" fill="#FFB900"/>
<path d="M54.6083 85.8299L52.8036 86.8686L52.2935 91.8963L54.0613 91.1589L54.6083 85.8299Z" fill="#4DFFAA"/>
<path d="M16.916 53.2879L17.2238 56.1473L19.2245 52.6273L19.0346 49.5482L16.916 53.2879Z" fill="#FF8600"/>
<path d="M54.6159 80.2593L52.8049 81.6148L52.805 86.8686L54.6096 85.8299L54.6159 80.2593Z" fill="#80FF77"/>
<path d="M19.0369 49.5478L19.2267 52.6269L21.606 49.789L21.5576 46.5301L19.0369 49.5478Z" fill="#FF5D00"/>
<path d="M54.0756 74.5947L52.2896 76.2739L52.8049 81.6159L54.6159 80.2605L54.0756 74.5947Z" fill="#B7FF40"/>
<path d="M21.5575 46.5309L21.6059 49.7898L24.3035 47.7168L24.4165 44.3239L21.5575 46.5309Z" fill="#FF3800"/>
<path d="M52.9977 68.9844L51.2677 70.9854L52.2891 76.2727L54.0752 74.5935L52.9977 68.9844Z" fill="#EBFF0C"/>
<path d="M24.4159 44.3239L24.3029 47.7168L27.2486 46.4711L27.5389 42.9945L24.4159 44.3239Z" fill="#FF1A00"/>
<path d="M51.4074 63.5847L49.7636 65.8965L51.2675 70.9849L52.9975 68.9838L51.4074 63.5847Z" fill="#FFC800"/>
<path d="M27.5394 42.9938L27.2491 46.4704L30.3644 46.0921L30.8427 42.5853L27.5394 42.9938Z" fill="#F10800"/>
<path d="M49.344 58.5466L47.8143 61.1488L49.763 65.8981L51.4068 63.5863L49.344 58.5466Z" fill="#FF9400"/>
<path d="M30.8407 42.5851L30.3624 46.092L33.5629 46.5967L34.235 43.1146L30.8407 42.5851Z" fill="#E80000"/>
<path d="M46.8632 54.0062L45.4726 56.8703L47.8149 61.1485L49.3446 58.5462L46.8632 54.0062Z" fill="#FF6800"/>
<path d="M34.2366 43.1152L33.5646 46.5973L36.7626 47.9751L37.6283 44.5728L34.2366 43.1152Z" fill="#ED0400"/>
<path d="M44.03 50.0927L42.7996 53.1815L45.4725 56.8684L46.863 54.0043L44.03 50.0927Z" fill="#FF4300"/>
<path d="M37.6278 44.5717L36.762 47.974L39.8693 50.1894L40.9229 46.9193L37.6278 44.5717Z" fill="#FA0F00"/>
<path d="M40.9239 46.9198L39.8702 50.1898L42.8007 53.1825L44.031 50.0937L40.9239 46.9198Z" fill="#FF2200"/>
<path d="M15.5307 88.0246L15.991 89.4677L14.5995 84.171L14.0707 82.4679L15.5307 88.0246Z" fill="#00CCFF"/>
<path d="M14.0727 82.4688L14.6016 84.1719L13.6936 78.6895L13.1191 76.7151L14.0727 82.4688Z" fill="#1FFFD7"/>
<path d="M48.1066 106.956L47.0612 107.532L44.3548 109.895L45.2658 109.436L48.1066 106.956Z" fill="#0018FF"/>
<path d="M13.1175 76.715L13.6921 78.6894L13.2946 73.1564L12.6987 70.9058L13.1175 76.715Z" fill="#5AFF9D"/>
<path d="M50.6097 103.664L49.4445 104.395L47.0612 107.531L48.1066 106.955L50.6097 103.664Z" fill="#0044FF"/>
<path d="M12.6998 70.904L13.2957 73.1546L13.4239 67.71L12.832 65.1851L12.6998 70.904Z" fill="#94FF63"/>
<path d="M52.7081 99.6365L51.4407 100.558L49.4441 104.396L50.6094 103.665L52.7081 99.6365Z" fill="#007CFF"/>
<path d="M12.8325 65.1847L13.4244 67.7097L14.0804 62.4932L13.5184 59.7025L12.8325 65.1847Z" fill="#CAFF2C"/>
<path d="M54.3434 94.9649L52.9947 96.1086L51.4401 100.557L52.7075 99.6351L54.3434 94.9649Z" fill="#00B8FF"/>
<path d="M13.5177 59.7032L14.0797 62.494L15.2526 57.6426L14.7462 54.6019L13.5177 59.7032Z" fill="#FFEA00"/>
<path d="M55.4687 89.7658L54.0621 91.1581L52.9946 96.1085L54.3433 94.9648L55.4687 89.7658Z" fill="#0FF8E7"/>
<path d="M14.7454 54.6032L15.2519 57.6439L16.9169 53.2882L16.4908 50.0204L14.7454 54.6032Z" fill="#FFAE00"/>
<path d="M56.049 84.168L54.6099 85.8294L54.0629 91.1583L55.4696 89.766L56.049 84.168Z" fill="#49FFAD"/>
<path d="M16.4913 50.0185L16.9174 53.2863L19.0361 49.5466L18.7135 46.0809L16.4913 50.0185Z" fill="#FF7A00"/>
<path d="M56.0614 78.3149L54.6166 80.2592L54.6103 85.8296L56.0495 84.1682L56.0614 78.3149Z" fill="#80FF77"/>
<path d="M18.7144 46.0826L19.037 49.5483L21.5578 46.5307L21.3596 42.9027L18.7144 46.0826Z" fill="#FF4A00"/>
<path d="M55.4988 72.3604L54.0761 74.5938L54.6164 80.2596L56.0612 78.3153L55.4988 72.3604Z" fill="#BAFF3C"/>
<path d="M21.3576 42.9021L21.5558 46.5301L24.415 44.323L24.359 40.5732L21.3576 42.9021Z" fill="#FF2500"/>
<path d="M54.371 66.4629L52.9978 68.9834L54.0753 74.5924L55.498 72.359L54.371 66.4629Z" fill="#F1FC06"/>
<path d="M24.3587 40.5739L24.4147 44.3237L27.5377 42.9943L27.638 39.1675L24.3587 40.5739Z" fill="#F10800"/>
<path d="M52.7054 60.7882L51.4084 63.5859L52.9984 68.9851L54.3716 66.4646L52.7054 60.7882Z" fill="#FFC100"/>
<path d="M27.6399 39.1671L27.5396 42.9939L30.843 42.5854L31.1093 38.7296L27.6399 39.1671Z" fill="#DA0000"/>
<path d="M50.5421 55.4875L49.346 58.5443L51.4088 63.5842L52.7058 60.7864L50.5421 55.4875Z" fill="#FF8900"/>
<path d="M31.1084 38.7285L30.8421 42.5844L34.2364 43.1139L34.6739 39.2781L31.1084 38.7285Z" fill="#CD0000"/>
<path d="M47.9365 50.7168L46.8635 54.0065L49.3449 58.5462L50.541 55.4894L47.9365 50.7168Z" fill="#FF5900"/>
<path d="M34.6747 39.2784L34.2372 43.1142L37.6291 44.5715L38.2377 40.8051L34.6747 39.2784Z" fill="#D10000"/>
<path d="M44.9602 46.6052L44.029 50.0947L46.8622 54.0065L47.9352 50.7169L44.9602 46.6052Z" fill="#FF3000"/>
<path d="M38.2356 40.8067L37.6269 44.5731L40.9222 46.9208L41.6971 43.2708L38.2356 40.8067Z" fill="#DF0000"/>
<path d="M41.6967 43.2688L40.9218 46.9188L44.0291 50.0928L44.9603 46.6032L41.6967 43.2688Z" fill="#FA0F00"/>
<path d="M33.5941 9.13396L29.5803 10.3796L32.4122 10.1199L35.8891 8.9399L33.5941 9.13396Z" fill="#9F0000"/>
<path d="M35.8899 8.93832L32.413 10.1183L35.3295 10.9276L38.2537 9.78274L35.8899 8.93832Z" fill="#960000"/>
<path d="M50.2897 33.7052L50.1701 35.2641L51.5516 41.5006L51.4117 39.79L50.2897 33.7052Z" fill="#FFAB00"/>
<path d="M38.253 9.78297L35.3288 10.9278L38.2493 12.791L40.6203 11.6499L38.253 9.78297Z" fill="#960000"/>
<path d="M48.8364 27.9786L48.3799 29.4037L50.1698 35.2636L50.2893 33.7047L48.8364 27.9786Z" fill="#FF6C00"/>
<path d="M40.6214 11.6506L38.2504 12.7918L41.0933 15.6623L42.9262 14.4935L40.6214 11.6506Z" fill="#A80000"/>
<path d="M47.0911 22.7746L46.229 24.0879L48.3795 29.4054L48.8361 27.9802L47.0911 22.7746Z" fill="#FF3400"/>
<path d="M42.9246 14.494L41.0916 15.6629L43.7767 19.4632L45.1019 18.2363L42.9246 14.494Z" fill="#C80000"/>
<path d="M45.1028 18.2368L43.7776 19.4637L46.2297 24.0879L47.0917 22.7746L45.1028 18.2368Z" fill="#F10800"/>
<path d="M9.12363 60.9468L9.59244 64.4923L9.11736 58.0428L8.64583 54.471L9.12363 60.9468Z" fill="#53FFA4"/>
<path d="M8.6459 54.4719L9.11742 58.0437L9.24843 51.6854L8.77523 48.0864L8.6459 54.4719Z" fill="#97FF60"/>
<path d="M8.776 48.0865L9.2492 51.6855L9.99042 45.5808L9.51664 41.9543L8.776 48.0865Z" fill="#D7FF1F"/>
<path d="M9.51638 41.9535L9.99016 45.5799L11.3303 39.8894L10.8571 36.2357L9.51638 41.9535Z" fill="#FFD000"/>
<path d="M10.8567 36.2368L11.3298 39.8905L13.2417 34.7682L12.7703 31.0885L10.8567 36.2368Z" fill="#FF8D00"/>
<path d="M12.7699 31.0872L13.2413 34.767L15.6818 30.3553L15.2133 26.6513L12.7699 31.0872Z" fill="#FF4E00"/>
<path d="M15.213 26.6535L15.6814 30.3575L18.5919 26.7833L18.1275 23.0577L15.213 26.6535Z" fill="#FF1A00"/>
<path d="M18.1291 23.0569L18.5935 26.7825L21.9006 24.1522L21.4412 20.4083L18.1291 23.0569Z" fill="#D10000"/>
<path d="M54.6735 49.0573L55.4512 56.5778L56.6791 63.0937L55.9202 55.6432L54.6735 49.0573Z" fill="#FFE600"/>
<path d="M21.44 20.4091L21.8994 24.153L25.5168 22.5486L25.0634 18.7901L21.44 20.4091Z" fill="#A80000"/>
<path d="M52.8277 42.7188L53.2254 46.4327L55.0654 52.7472L54.6726 49.0568L52.8277 42.7188Z" fill="#FF9F00"/>
<path d="M25.0637 18.7892L25.5172 22.5477L29.3479 22.0224L28.9011 18.2533L25.0637 18.7892Z" fill="#8D0000"/>
<path d="M50.432 36.8064L50.8354 40.5407L53.2268 46.4326L52.8292 42.7186L50.432 36.8064Z" fill="#FF6000"/>
<path d="M28.9 18.2541L29.3468 22.0232L33.2863 22.5998L32.8467 18.825L28.9 18.2541Z" fill="#800000"/>
<path d="M47.5435 31.4884L47.9534 35.2395L50.8334 40.5419L50.4299 36.8076L47.5435 31.4884Z" fill="#FF2900"/>
<path d="M32.8488 18.8238L33.2884 22.5987L37.2274 24.2671L36.7953 20.491L32.8488 18.8238Z" fill="#800000"/>
<path d="M44.2475 26.9135L44.6645 30.6775L47.9548 35.2395L47.5449 31.4884L44.2475 26.9135Z" fill="#DF0000"/>
<path d="M36.795 20.4908L37.2271 24.2669L41.0551 26.9844L40.6306 23.212L36.795 20.4908Z" fill="#920000"/>
<path d="M40.6289 23.213L41.0534 26.9853L44.6631 30.6772L44.2461 26.9133L40.6289 23.213Z" fill="#B20000"/>
<path d="M53.8357 46.0033L54.6721 49.0579L55.9188 55.6438L55.0375 52.5853L53.8357 46.0033Z" fill="#FFE600"/>
<path d="M26.9093 11.6902L23.7705 13.9126L26.8865 12.4881L29.5796 10.3778L26.9093 11.6902Z" fill="#B20000"/>
<path d="M29.5802 10.3798L26.8871 12.4901L30.1904 12.1374L32.4122 10.12L29.5802 10.3798Z" fill="#960000"/>
<path d="M32.4135 10.1198L30.1918 12.1372L33.5924 12.8751L35.3299 10.929L32.4135 10.1198Z" fill="#890000"/>
<path d="M35.3294 10.9272L33.5919 12.8733L36.9957 14.6886L38.2498 12.7905L35.3294 10.9272Z" fill="#890000"/>
<path d="M46.2305 24.0872L46.2884 25.9865L48.7895 31.3513L48.381 29.4047L46.2305 24.0872Z" fill="#FF2D00"/>
<path d="M38.2505 12.7923L36.9964 14.6904L40.3082 17.5372L41.0932 15.6629L38.2505 12.7923Z" fill="#9B0000"/>
<path d="M43.7772 19.4627L43.4336 21.3376L46.2873 25.9863L46.2293 24.087L43.7772 19.4627Z" fill="#E80000"/>
<path d="M41.0915 15.6631L40.3065 17.5374L43.4333 21.3383L43.7768 19.4634L41.0915 15.6631Z" fill="#BB0000"/>
<path d="M48.3786 29.4052L48.7871 31.3518L50.8671 37.2801L50.1685 35.2651L48.3786 29.4052Z" fill="#FF6400"/>
<path d="M20.9252 16.3617L18.7371 19.5114L21.9127 16.9304L23.771 13.9147L20.9252 16.3617Z" fill="#D10000"/>
<path d="M23.7711 13.9144L21.9127 16.9301L25.3879 15.3779L26.8871 12.4898L23.7711 13.9144Z" fill="#A80000"/>
<path d="M26.887 12.4902L25.3878 15.3784L29.0697 14.9073L30.1905 12.1376L26.887 12.4902Z" fill="#8D0000"/>
<path d="M30.1907 12.136L29.07 14.9057L32.8579 15.5373L33.5913 12.8741L30.1907 12.136Z" fill="#800000"/>
<path d="M33.5919 12.8742L32.8585 15.5374L36.6477 17.2606L36.9958 14.6893L33.5919 12.8742Z" fill="#840000"/>
<path d="M46.2882 25.9871L46.9781 28.3854L49.7543 33.7306L48.7893 31.3521L46.2882 25.9871Z" fill="#FF2900"/>
<path d="M36.9953 14.6898L36.6472 17.2611L40.3314 20.0321L40.307 17.5365L36.9953 14.6898Z" fill="#920000"/>
<path d="M43.4351 21.3378L43.8086 23.7753L46.9786 28.3849L46.2887 25.9867L43.4351 21.3378Z" fill="#DF0000"/>
<path d="M40.3064 17.5358L40.3308 20.0313L43.8067 23.7742L43.4332 21.3368L40.3064 17.5358Z" fill="#B20000"/>
<path d="M18.4243 19.7526L15.9448 23.039L18.7383 19.5101L20.9263 16.3604L18.4243 19.7526Z" fill="#FF1A00"/>
<path d="M11.7696 32.4992L10.8562 36.2359L12.7699 31.0876L13.6023 27.4108L11.7696 32.4992Z" fill="#FF8D00"/>
<path d="M13.6025 27.4115L12.77 31.0882L15.2135 26.6525L15.9436 23.0397L13.6025 27.4115Z" fill="#FF4E00"/>
<path d="M15.9434 23.0396L15.2132 26.6525L18.1277 23.0567L18.7367 19.5107L15.9434 23.0396Z" fill="#FF1600"/>
<path d="M18.7369 19.51L18.1278 23.056L21.4399 20.4074L21.9124 16.9291L18.7369 19.51Z" fill="#D10000"/>
<path d="M21.9129 16.9291L21.4403 20.4074L25.0635 18.7883L25.3879 15.3768L21.9129 16.9291Z" fill="#A40000"/>
<path d="M25.389 15.3785L25.0647 18.79L28.9022 18.2543L29.0709 14.9074L25.389 15.3785Z" fill="#890000"/>
<path d="M49.7546 33.73L50.432 36.8074L52.8292 42.7196L52.0613 39.6586L49.7546 33.73Z" fill="#FF6000"/>
<path d="M29.0701 14.9053L28.9014 18.2522L32.8481 18.8229L32.8583 15.537L29.0701 14.9053Z" fill="#800000"/>
<path d="M46.9786 28.3848L47.5458 31.4879L50.4322 36.8074L49.7548 33.73L46.9786 28.3848Z" fill="#FF2900"/>
<path d="M32.8589 15.5369L32.8488 18.8228L36.7953 20.4901L36.6483 17.2602L32.8589 15.5369Z" fill="#800000"/>
<path d="M43.8075 23.7752L44.2472 26.9128L47.5445 31.4877L46.9774 28.3846L43.8075 23.7752Z" fill="#DF0000"/>
<path d="M36.6477 17.261L36.7948 20.4909L40.6305 23.2121L40.3321 20.0319L36.6477 17.261Z" fill="#920000"/>
<path d="M40.3314 20.0327L40.6298 23.2128L44.247 26.9131L43.8073 23.7756L40.3314 20.0327Z" fill="#B20000"/>
<path d="M72.5069 57.858L66.9718 57.8121L67.0658 61.9733L72.7156 61.7492L72.5069 57.858Z" fill="#23FFD4"/>
<path d="M72.4293 53.672L66.9465 53.3172L66.9736 57.8134L72.5086 57.8593L72.4293 53.672Z" fill="#53FFA4"/>
<path d="M72.4819 49.2952L66.9871 48.6009L66.946 53.3158L72.4288 53.6706L72.4819 49.2952Z" fill="#80FF77"/>
<path d="M72.667 44.8465L67.0962 43.7914L66.9874 48.6006L72.4822 49.2949L72.667 44.8465Z" fill="#ADFF49"/>
<path d="M72.9797 40.4451L67.2698 39.018L67.0957 43.7928L72.6666 44.8479L72.9797 40.4451Z" fill="#DBFF1C"/>
<path d="M73.4123 36.2071L67.5041 34.4076L67.2691 39.0182L72.9789 40.4453L73.4123 36.2071Z" fill="#FFE200"/>
<path d="M78.5389 19.5967L70.1739 16.0091L69.7553 16.5749L77.7201 20.0501L78.5389 19.5967Z" fill="#FF3800"/>
<path d="M73.9549 32.2489L67.7942 30.0874L67.5042 34.4072L73.4123 36.2067L73.9549 32.2489Z" fill="#FFB600"/>
<path d="M77.7187 20.05L69.7539 16.5749L69.3288 17.9195L76.8923 21.225L77.7187 20.05Z" fill="#FF3800"/>
<path d="M74.5926 28.6796L68.1316 26.1772L67.7943 30.0865L73.9551 32.2481L74.5926 28.6796Z" fill="#FF9100"/>
<path d="M76.8934 21.224L69.33 17.9185L68.9101 20.0077L76.0824 23.0905L76.8934 21.224Z" fill="#FF4300"/>
<path d="M75.3077 25.5984L68.5062 22.7858L68.1309 26.1765L74.592 28.6789L75.3077 25.5984Z" fill="#FF6F00"/>
<path d="M76.0829 23.0917L68.9105 20.0089L68.5074 22.7868L75.3089 25.5993L76.0829 23.0917Z" fill="#FF5500"/>
<path d="M78.1358 58.3211L72.5062 57.8595L72.7148 61.7508L78.4344 61.9422L78.1358 58.3211Z" fill="#2CFFCA"/>
<path d="M78.0159 54.4422L72.4274 53.6715L72.5068 57.8588L78.1363 58.3203L78.0159 54.4422Z" fill="#56FFA0"/>
<path d="M78.0784 50.4073L72.4798 49.2966L72.4269 53.6718L78.0155 54.4426L78.0784 50.4073Z" fill="#80FF77"/>
<path d="M78.3259 46.3203L72.6668 44.8479L72.4818 49.2963L78.0804 50.407L78.3259 46.3203Z" fill="#AAFF4D"/>
<path d="M78.7487 42.2905L72.9798 40.445L72.6668 44.8478L78.3259 46.3201L78.7487 42.2905Z" fill="#D4FF23"/>
<path d="M79.3387 38.4262L73.413 36.2068L72.9796 40.4451L78.7485 42.2906L79.3387 38.4262Z" fill="#FBF100"/>
<path d="M87.5065 23.9635L79.3284 19.8741L78.5392 19.5968L86.4085 23.6287L87.5065 23.9635Z" fill="#FF5500"/>
<path d="M80.079 34.8324L73.9538 32.2489L73.4111 36.2068L79.3368 38.4263L80.079 34.8324Z" fill="#FFC400"/>
<path d="M86.4088 23.6291L78.5394 19.5971L77.7207 20.0506L85.2724 23.9655L86.4088 23.6291Z" fill="#FF4E00"/>
<path d="M80.9543 31.6074L74.592 28.6804L73.9543 32.2489L80.0796 34.8323L80.9543 31.6074Z" fill="#FFA300"/>
<path d="M85.2707 23.966L77.719 20.0512L76.8928 21.2262L84.1266 24.9669L85.2707 23.966Z" fill="#FF5200"/>
<path d="M81.9396 28.8406L75.3085 25.6005L74.593 28.6811L80.9553 31.6081L81.9396 28.8406Z" fill="#FF8200"/>
<path d="M84.1278 24.9667L76.8939 21.226L76.0827 23.0924L83.007 26.6062L84.1278 24.9667Z" fill="#FF5900"/>
<path d="M83.0049 26.6063L76.0806 23.0925L75.3067 25.6004L81.9378 28.8405L83.0049 26.6063Z" fill="#FF6C00"/>
<path d="M83.3878 59.1434L78.1356 58.3198L78.4343 61.9408L83.7528 62.4995L83.3878 59.1434Z" fill="#33FFC4"/>
<path d="M83.2378 55.5691L78.0159 54.4429L78.1361 58.3211L83.3883 59.1446L83.2378 55.5691Z" fill="#5AFF9D"/>
<path d="M83.308 51.8661L78.0793 50.4074L78.0165 54.4428L83.2385 55.569L83.308 51.8661Z" fill="#80FF77"/>
<path d="M83.598 48.1309L78.3256 46.3188L78.0801 50.4055L83.3088 51.8642L83.598 48.1309Z" fill="#A7FF50"/>
<path d="M84.1005 44.4676L78.7483 42.2911L78.3254 46.3209L83.5979 48.1329L84.1005 44.4676Z" fill="#CEFF29"/>
<path d="M84.8033 40.9676L79.3373 38.426L78.7472 42.2903L84.0995 44.4668L84.8033 40.9676Z" fill="#F1FC06"/>
<path d="M85.691 37.7278L80.0797 34.8308L79.3375 38.4245L84.8035 40.9661L85.691 37.7278Z" fill="#FFD700"/>
<path d="M94.6215 28.3376L87.5067 23.9624L86.4088 23.6274L93.2958 27.9448L94.6215 28.3376Z" fill="#FF6F00"/>
<path d="M86.7389 34.8396L80.955 31.6069L80.0801 34.8319L85.6914 37.7289L86.7389 34.8396Z" fill="#FFB600"/>
<path d="M93.2935 27.9463L86.4065 23.629L85.2702 23.9654L91.9236 28.1668L93.2935 27.9463Z" fill="#FF6800"/>
<path d="M87.9195 32.3776L81.9398 28.8388L80.9556 31.6062L86.7395 34.8389L87.9195 32.3776Z" fill="#FF9800"/>
<path d="M91.9256 28.1667L85.2722 23.9653L84.1281 24.9661L90.5484 28.9959L91.9256 28.1667Z" fill="#FF6C00"/>
<path d="M89.1998 30.4134L83.006 26.6063L81.939 28.8403L87.9187 32.3791L89.1998 30.4134Z" fill="#FF8200"/>
<path d="M90.5478 28.9966L84.1274 24.9669L83.0066 26.6063L89.2004 30.4134L90.5478 28.9966Z" fill="#FF7300"/>
<path d="M87.7891 60.2629L83.3894 59.1432L83.7543 62.4995L88.1982 63.3655L87.7891 60.2629Z" fill="#39FFBE"/>
<path d="M87.6165 56.9762L83.2375 55.5674L83.3879 59.1429L87.7876 60.2626L87.6165 56.9762Z" fill="#5AFF9D"/>
<path d="M87.6891 53.5901L83.3069 51.8644L83.2373 55.5672L87.6162 56.976L87.6891 53.5901Z" fill="#80FF77"/>
<path d="M88.0068 50.1943L83.5974 48.1323L83.3081 51.8658L87.6903 53.5915L88.0068 50.1943Z" fill="#A4FF53"/>
<path d="M88.5593 46.8752L84.0994 44.4669L83.5967 48.1323L88.0061 50.1943L88.5593 46.8752Z" fill="#C7FF30"/>
<path d="M89.3371 43.722L84.8043 40.9671L84.1004 44.4663L88.5604 46.8745L89.3371 43.722Z" fill="#E7FF0F"/>
<path d="M90.3176 40.8215L85.6916 37.7293L84.8043 40.9677L89.337 43.7225L90.3176 40.8215Z" fill="#FFE600"/>
<path d="M91.4752 38.2504L86.7379 34.8399L85.6903 37.7293L90.3163 40.8215L91.4752 38.2504Z" fill="#FFC400"/>
<path d="M100.228 32.8334L94.6214 28.3392L93.2958 27.9462L98.7523 32.3852L100.228 32.8334Z" fill="#FF8600"/>
<path d="M92.7832 36.0782L87.9191 32.3774L86.7389 34.8387L91.4762 38.2492L92.7832 36.0782Z" fill="#FFAB00"/>
<path d="M98.7501 32.385L93.2936 27.9461L91.9237 28.1665L97.2266 32.4955L98.7501 32.385Z" fill="#FF8200"/>
<path d="M94.2038 34.3667L89.2009 30.4118L87.9199 32.3776L92.784 36.0784L94.2038 34.3667Z" fill="#FF9800"/>
<path d="M97.2273 32.4941L91.9243 28.1652L90.5471 28.9946L95.6977 33.1608L97.2273 32.4941Z" fill="#FF8200"/>
<path d="M95.6967 33.1627L90.5461 28.9965L89.1987 30.4132L94.2015 34.3681L95.6967 33.1627Z" fill="#FF8900"/>
<path d="M90.9026 61.6055L87.7878 60.2621L88.1971 63.3647L91.3371 64.4717L90.9026 61.6055Z" fill="#3CFFBA"/>
<path d="M90.7202 58.5887L87.6185 56.977L87.7896 60.2634L90.9044 61.6067L90.7202 58.5887Z" fill="#5DFF9A"/>
<path d="M90.7926 55.4974L87.6911 53.5921L87.6182 56.9781L90.72 58.5899L90.7926 55.4974Z" fill="#80FF77"/>
<path d="M91.1203 52.4087L88.0065 50.1926L87.69 53.5898L90.7915 55.4951L91.1203 52.4087Z" fill="#A0FF56"/>
<path d="M91.6978 49.4091L88.5595 46.8737L88.0062 50.1928L91.12 52.4088L91.6978 49.4091Z" fill="#C1FF36"/>
<path d="M92.5107 46.5779L89.3362 43.723L88.5595 46.8754L91.6978 49.4108L92.5107 46.5779Z" fill="#DEFF19"/>
<path d="M93.5386 43.987L90.3168 40.8217L89.3363 43.7227L92.5108 46.5776L93.5386 43.987Z" fill="#FBF100"/>
<path d="M94.7539 41.7083L91.4754 38.2502L90.3164 40.8213L93.5382 43.9866L94.7539 41.7083Z" fill="#FFD700"/>
<path d="M105.432 38.2752L101.615 33.8253L100.226 32.8324L103.964 37.284L105.432 38.2752Z" fill="#FFA700"/>
<path d="M96.127 39.8036L92.7829 36.0787L91.4761 38.2497L94.7546 41.7078L96.127 39.8036Z" fill="#FFC100"/>
<path d="M103.967 37.2846L100.228 32.833L98.7523 32.385L102.409 36.7867L103.967 37.2846Z" fill="#FF9C00"/>
<path d="M97.6197 38.3247L94.2033 34.3666L92.7834 36.0782L96.1275 39.803L97.6197 38.3247Z" fill="#FFAE00"/>
<path d="M102.409 36.7866L98.7516 32.3848L97.2282 32.4952L100.803 36.7964L102.409 36.7866Z" fill="#FF9800"/>
<path d="M99.1929 37.3142L95.699 33.1621L94.204 34.3676L97.6204 38.3257L99.1929 37.3142Z" fill="#FF9F00"/>
<path d="M100.803 36.7966L97.2285 32.4954L95.6987 33.162L99.1926 37.3141L100.803 36.7966Z" fill="#FF9800"/>
<path d="M92.3884 63.1015L90.9042 61.6076L91.3388 64.4736L92.8331 65.7551L92.3884 63.1015Z" fill="#43FFB4"/>
<path d="M92.1958 60.3223L90.7184 58.5877L90.9025 61.6056L92.3868 63.0995L92.1958 60.3223Z" fill="#60FF97"/>
<path d="M92.2658 57.4937L90.7918 55.4964L90.7193 58.5889L92.1967 60.3236L92.2658 57.4937Z" fill="#7DFF7A"/>
<path d="M92.5936 54.6849L91.1199 52.4101L90.791 55.4966L92.2649 57.4939L92.5936 54.6849Z" fill="#9DFF5A"/>
<path d="M93.1763 51.9702L91.6995 49.4103L91.1216 52.4098L92.5953 54.6847L93.1763 51.9702Z" fill="#BAFF3C"/>
<path d="M93.9938 49.4215L92.5108 46.577L91.6978 49.4101L93.1746 51.97L93.9938 49.4215Z" fill="#D4FF23"/>
<path d="M95.0317 47.1079L93.5394 43.9872L92.5118 46.5778L93.9948 49.4224L95.0317 47.1079Z" fill="#EEFF09"/>
<path d="M109.649 45.7357L107.948 41.6138L106.772 39.732L108.45 43.9452L109.649 45.7357Z" fill="#FFDE00"/>
<path d="M96.2596 45.0892L94.755 41.7079L93.5392 43.9864L95.0315 47.1071L96.2596 45.0892Z" fill="#FFE600"/>
<path d="M108.451 43.9448L106.774 39.7315L105.434 38.2748L107.087 42.5359L108.451 43.9448Z" fill="#FFCC00"/>
<path d="M97.6476 43.4222L96.1279 39.8039L94.7557 41.7081L96.2602 45.0894L97.6476 43.4222Z" fill="#FFD000"/>
<path d="M107.086 42.5356L105.433 38.2745L103.965 37.2833L105.593 41.5466L107.086 42.5356Z" fill="#FFB900"/>
<path d="M99.1581 42.1516L97.6207 38.3257L96.1284 39.8038L97.6481 43.4221L99.1581 42.1516Z" fill="#FFC100"/>
<path d="M105.593 41.5472L103.965 37.2839L102.407 36.7861L104.01 41.0055L105.593 41.5472Z" fill="#FFB200"/>
<path d="M100.748 41.312L99.191 37.3139L97.6184 38.3256L99.1558 42.1514L100.748 41.312Z" fill="#FFB200"/>
<path d="M104.012 41.0047L102.409 36.7853L100.803 36.795L102.383 40.9253L104.012 41.0047Z" fill="#FFAB00"/>
<path d="M102.382 40.9255L100.802 36.7952L99.1915 37.3128L100.749 41.3109L102.382 40.9255Z" fill="#FFAE00"/>
<path d="M93.5812 52.1535L93.9954 49.4205L93.1762 51.969L92.7783 54.4586L93.5812 52.1535Z" fill="#CEFF29"/>
<path d="M110.979 66.5322L111.569 63.9972L112.054 61.2563L111.453 64.0252L110.979 66.5322Z" fill="#50FFA7"/>
<path d="M111.452 64.0255L112.054 61.2565L112.287 58.4395L111.675 61.4353L111.452 64.0255Z" fill="#6AFF8D"/>
<path d="M111.677 61.4345L112.289 58.4387L112.263 55.6179L111.643 58.828L111.677 61.4345Z" fill="#87FF70"/>
<path d="M111.642 58.8288L112.262 55.6187L111.975 52.8676L111.351 56.2734L111.642 58.8288Z" fill="#A0FF56"/>
<path d="M111.352 56.2726L111.976 52.8668L111.436 50.2574L110.81 53.8358L111.352 56.2726Z" fill="#BEFF39"/>
<path d="M110.809 53.8352L111.435 50.2568L110.654 47.8585L110.029 51.5813L110.809 53.8352Z" fill="#D4FF23"/>
<path d="M94.599 50.0777L95.032 47.1079L93.995 49.4222L93.5809 52.1553L94.599 50.0777Z" fill="#E4FF13"/>
<path d="M110.029 51.5813L110.653 47.8585L109.65 45.7355L109.031 49.5708L110.029 51.5813Z" fill="#EBFF0C"/>
<path d="M95.8045 48.282L96.2585 45.0892L95.0304 47.1073L94.5973 50.0771L95.8045 48.282Z" fill="#F8F500"/>
<path d="M109.031 49.5725L109.65 45.7372L108.451 43.9468L107.841 47.8594L109.031 49.5725Z" fill="#FEED00"/>
<path d="M97.1698 46.8182L97.6462 43.4218L96.2589 45.0889L95.8049 48.2816L97.1698 46.8182Z" fill="#FFDE00"/>
<path d="M107.841 47.8585L108.451 43.9459L107.087 42.5369L106.489 46.4893L107.841 47.8585Z" fill="#FFDB00"/>
<path d="M98.6578 45.7259L99.1572 42.1514L97.6472 43.4221L97.1708 46.8184L98.6578 45.7259Z" fill="#FFD000"/>
<path d="M106.488 46.4888L107.086 42.5363L105.593 41.5473L105.01 45.5003L106.488 46.4888Z" fill="#FFCC00"/>
<path d="M100.228 45.0348L100.751 41.3122L99.158 42.1516L98.6585 45.7261L100.228 45.0348Z" fill="#FFC400"/>
<path d="M105.01 45.5004L105.593 41.5474L104.01 41.0057L103.446 44.92L105.01 45.5004Z" fill="#FFC400"/>
<path d="M101.839 44.7647L102.383 40.9277L100.75 41.3129L100.228 45.0355L101.839 44.7647Z" fill="#FFC100"/>
<path d="M103.447 44.9208L104.012 41.0065L102.382 40.9271L101.838 44.7642L103.447 44.9208Z" fill="#FFBD00"/>
<path d="M102.851 77.2971L105.523 75.7551L106.937 74.519L104.222 76.2145L102.851 77.2971Z" fill="#00D4FF"/>
<path d="M104.222 76.2145L106.938 74.519L108.222 72.9358L105.464 74.8009L104.222 76.2145Z" fill="#00E4F8"/>
<path d="M105.465 74.8004L108.222 72.9352L109.343 71.0439L106.547 73.0906L105.465 74.8004Z" fill="#0FF8E7"/>
<path d="M106.548 73.0912L109.343 71.0445L110.271 68.8922L107.442 71.1279L106.548 73.0912Z" fill="#26FFD1"/>
<path d="M107.441 71.127L110.269 68.8912L110.979 66.5318L108.123 68.9595L107.441 71.127Z" fill="#3CFFBA"/>
<path d="M108.123 68.9597L110.979 66.532L111.452 64.0251L108.575 66.6427L108.123 68.9597Z" fill="#53FFA4"/>
<path d="M108.576 66.6437L111.453 64.0261L111.676 61.436L108.785 64.2371L108.576 66.6437Z" fill="#6DFF8A"/>
<path d="M108.784 64.2362L111.675 61.435L111.641 58.8283L108.743 61.8018L108.784 64.2362Z" fill="#87FF70"/>
<path d="M108.743 61.8013L111.642 58.8277L111.351 56.2723L108.453 59.4024L108.743 61.8013Z" fill="#A0FF56"/>
<path d="M108.453 59.4037L111.351 56.2736L110.809 53.8367L107.92 57.1038L108.453 59.4037Z" fill="#B7FF40"/>
<path d="M107.918 57.1025L110.808 53.8354L110.028 51.5816L107.155 54.9626L107.918 57.1025Z" fill="#CEFF29"/>
<path d="M107.155 54.9625L110.029 51.5815L109.031 49.571L106.181 53.0392L107.155 54.9625Z" fill="#E4FF13"/>
<path d="M94.6789 49.8971L97.1706 46.8177L95.8056 48.2813L93.3611 51.1932L94.6789 49.8971Z" fill="#FEED00"/>
<path d="M106.18 53.0403L109.03 49.5721L107.839 47.859L105.02 51.3854L106.18 53.0403Z" fill="#F4F802"/>
<path d="M96.1169 48.9534L98.6585 45.7267L97.1715 46.8191L94.6798 49.8984L96.1169 48.9534Z" fill="#FFDE00"/>
<path d="M105.022 51.3857L107.841 47.8593L106.489 46.49L103.707 50.0441L105.022 51.3857Z" fill="#FFE600"/>
<path d="M97.6349 48.3863L100.228 45.0357L98.658 45.727L96.1164 48.9537L97.6349 48.3863Z" fill="#FFD300"/>
<path d="M103.707 50.0433L106.489 46.4891L105.011 45.5008L102.271 49.051L103.707 50.0433Z" fill="#FFDB00"/>
<path d="M99.1929 48.2103L101.837 44.7632L100.226 45.0342L97.6331 48.3848L99.1929 48.2103Z" fill="#FFD000"/>
<path d="M102.271 49.0499L105.011 45.4997L103.447 44.9193L100.754 48.4334L102.271 49.0499Z" fill="#FFD000"/>
<path d="M100.753 48.4358L103.447 44.9217L101.838 44.765L99.1941 48.2121L100.753 48.4358Z" fill="#FFCC00"/>
<path d="M96.8194 79.5435L101.388 78.0204L102.851 77.2953L98.2201 78.926L96.8194 79.5435Z" fill="#00D0FF"/>
<path d="M98.22 78.9268L102.851 77.2961L104.221 76.2135L99.5305 77.9657L98.22 78.9268Z" fill="#00DCFE"/>
<path d="M99.5304 77.9656L104.221 76.2134L105.464 74.7998L100.718 76.6843L99.5304 77.9656Z" fill="#06ECF1"/>
<path d="M100.718 76.685L105.464 74.8005L106.547 73.0908L101.751 75.1151L100.718 76.685Z" fill="#19FFDE"/>
<path d="M101.751 75.1147L106.547 73.0904L107.441 71.1271L102.603 73.2953L101.751 75.1147Z" fill="#29FFCE"/>
<path d="M102.604 73.2942L107.442 71.126L108.125 68.9585L103.252 71.2711L102.604 73.2942Z" fill="#40FFB7"/>
<path d="M103.252 71.2732L108.125 68.9605L108.577 66.6437L103.678 69.0977L103.252 71.2732Z" fill="#56FFA0"/>
<path d="M103.677 69.0958L108.576 66.6418L108.785 64.2351L103.869 66.8238L103.677 69.0958Z" fill="#6DFF8A"/>
<path d="M103.869 66.8245L108.785 64.2358L108.744 61.8014L103.822 64.5149L103.869 66.8245Z" fill="#87FF70"/>
<path d="M103.822 64.516L108.743 61.8025L108.453 59.4038L103.535 62.229L103.822 64.516Z" fill="#9DFF5A"/>
<path d="M103.534 62.2272L108.452 59.402L107.918 57.1021L103.015 60.0229L103.534 62.2272Z" fill="#B4FF43"/>
<path d="M103.017 60.0228L107.92 57.102L107.156 54.9619L102.277 57.96L103.017 60.0228Z" fill="#CAFF2C"/>
<path d="M102.276 57.9619L107.155 54.9638L106.181 53.0406L101.336 56.0952L102.276 57.9619Z" fill="#DEFF19"/>
<path d="M101.336 56.0944L106.181 53.0398L105.021 51.3851L100.219 54.4735L101.336 56.0944Z" fill="#EEFF09"/>
<path d="M93.1359 51.294L97.6348 48.3846L96.1164 48.9522L91.6842 51.7613L93.1359 51.294Z" fill="#FFDE00"/>
<path d="M100.218 54.4744L105.02 51.3859L103.705 50.0442L98.9538 53.1436L100.218 54.4744Z" fill="#FBF100"/>
<path d="M94.6289 51.1999L99.1952 48.2097L97.6355 48.3842L93.1366 51.2936L94.6289 51.1999Z" fill="#FFDB00"/>
<path d="M98.9554 53.1419L103.707 50.0425L102.271 49.0501L97.5774 52.1366L98.9554 53.1419Z" fill="#FFE600"/>
<path d="M96.1217 51.4847L100.753 48.4349L99.1941 48.2111L94.6278 51.2012L96.1217 51.4847Z" fill="#FFD700"/>
<path d="M97.5773 52.1362L102.271 49.0496L100.754 48.4333L96.122 51.4831L97.5773 52.1362Z" fill="#FFDB00"/>
<path d="M90.6326 81.2006L96.8198 79.5437L98.2204 78.9262L91.9638 80.6667L90.6326 81.2006Z" fill="#00D8FF"/>
<path d="M91.9657 80.668L98.2222 78.9276L99.5329 77.9665L93.2103 79.7974L91.9657 80.668Z" fill="#00E4F8"/>
<path d="M93.2086 79.7962L99.5312 77.9653L100.718 76.6839L94.3348 78.6099L93.2086 79.7962Z" fill="#0CF4EB"/>
<path d="M94.3364 78.6097L100.72 76.6837L101.753 75.1138L95.3148 77.137L94.3364 78.6097Z" fill="#1CFFDB"/>
<path d="M95.3143 77.1385L101.752 75.1152L102.604 73.2958L96.1191 75.4161L95.3143 77.1385Z" fill="#2CFFCA"/>
<path d="M96.1196 75.4145L102.604 73.2942L103.252 71.2711L96.7294 73.4857L96.1196 75.4145Z" fill="#43FFB4"/>
<path d="M96.7273 73.4874L103.25 71.2728L103.676 69.0974L97.1255 71.4014L96.7273 73.4874Z" fill="#56FFA0"/>
<path d="M97.1273 71.4018L103.678 69.0978L103.87 66.8258L97.3027 69.212L97.1273 71.4018Z" fill="#6DFF8A"/>
<path d="M97.3024 69.2098L103.87 66.8236L103.823 64.514L97.2494 66.973L97.3024 69.2098Z" fill="#83FF73"/>
<path d="M97.2498 66.9729L103.823 64.5139L103.536 62.2268L96.9689 64.7479L97.2498 66.9729Z" fill="#9AFF5D"/>
<path d="M96.9672 64.7487L103.535 62.2276L103.015 60.0234L96.4648 62.5935L96.9672 64.7487Z" fill="#B1FF46"/>
<path d="M96.4647 62.5938L103.015 60.0238L102.276 57.9608L95.7536 60.566L96.4647 62.5938Z" fill="#C4FF33"/>
<path d="M95.7543 60.5652L102.276 57.96L101.336 56.0932L94.8527 58.7188L95.7543 60.5652Z" fill="#D7FF1F"/>
<path d="M87.034 53.7239L93.1345 51.2957L91.6829 51.7631L85.6554 54.1124L87.034 53.7239Z" fill="#FFE600"/>
<path d="M94.8542 58.7199L101.338 56.0944L100.221 54.4738L93.7854 57.104L94.8542 58.7199Z" fill="#E7FF0F"/>
<path d="M88.4544 53.6966L94.6287 51.2004L93.1361 51.294L87.0357 53.7221L88.4544 53.6966Z" fill="#FFE200"/>
<path d="M93.7838 57.105L100.219 54.4748L98.9546 53.1439L92.576 55.7633L93.7838 57.105Z" fill="#F4F802"/>
<path d="M89.8749 54.036L96.1212 51.4845L94.6274 51.2011L88.4531 53.6974L89.8749 54.036Z" fill="#FFE200"/>
<path d="M92.5759 55.7624L98.9545 53.143L97.5764 52.1376L91.2613 54.7307L92.5759 55.7624Z" fill="#FEED00"/>
<path d="M91.2629 54.7295L97.578 52.1364L96.1226 51.4834L89.8764 54.0349L91.2629 54.7295Z" fill="#FFE200"/>
<path d="M83.2553 83.0211L90.633 81.2011L91.9642 80.6671L84.5145 82.5492L83.2553 83.0211Z" fill="#00DCFE"/>
<path d="M84.5158 82.5504L91.9655 80.6683L93.2101 79.7977L85.6922 81.7411L84.5158 82.5504Z" fill="#02E8F4"/>
<path d="M85.6913 81.7406L93.2092 79.7971L94.3353 78.6109L86.7543 80.6133L85.6913 81.7406Z" fill="#0FF8E7"/>
<path d="M86.7542 80.6134L94.3351 78.611L95.3134 77.1383L87.6762 79.1959L86.7542 80.6134Z" fill="#1FFFD7"/>
<path d="M87.6769 79.1942L95.3141 77.1366L96.119 75.4142L88.4337 77.5216L87.6769 79.1942Z" fill="#30FFC7"/>
<path d="M88.4322 77.5223L96.1174 75.415L96.7273 73.4863L89.0033 75.6368L88.4322 77.5223Z" fill="#43FFB4"/>
<path d="M89.0048 75.6373L96.7288 73.4868L97.1271 71.4007L89.3751 73.5869L89.0048 75.6373Z" fill="#5AFF9D"/>
<path d="M89.375 73.5865L97.127 71.4004L97.3024 69.2106L89.5334 71.4238L89.375 73.5865Z" fill="#6DFF8A"/>
<path d="M89.5323 71.424L97.3013 69.2109L97.2483 66.9741L89.474 69.2053L89.5323 71.424Z" fill="#83FF73"/>
<path d="M89.475 69.2047L97.2493 66.9735L96.9684 64.7484L89.2006 66.9879L89.475 69.2047Z" fill="#9AFF5D"/>
<path d="M89.1997 66.9879L96.9675 64.7484L96.4652 62.5933L88.7157 64.8315L89.1997 66.9879Z" fill="#B1FF46"/>
<path d="M88.717 64.8328L96.4665 62.5947L95.7554 60.5669L88.0356 62.7941L88.717 64.8328Z" fill="#C4FF33"/>
<path d="M88.0345 62.7945L95.7542 60.5673L94.8525 58.7208L87.1733 60.9277L88.0345 62.7945Z" fill="#D7FF1F"/>
<path d="M81.0947 55.6881L88.4548 53.6965L87.0359 53.722L79.7516 55.6552L81.0947 55.6881Z" fill="#FFE600"/>
<path d="M87.1742 60.9268L94.8535 58.7199L93.7847 57.1041L86.1554 59.282L87.1742 60.9268Z" fill="#E4FF13"/>
<path d="M82.4402 56.082L89.8746 54.0355L88.453 53.6967L81.0928 55.6883L82.4402 56.082Z" fill="#FFE600"/>
<path d="M86.1538 59.282L93.783 57.1041L92.5753 55.7623L85.0046 57.9032L86.1538 59.282Z" fill="#F1FC06"/>
<path d="M83.7555 56.8276L91.2607 54.7308L89.8741 54.0364L82.4397 56.083L83.7555 56.8276Z" fill="#FFE600"/>
<path d="M85.0059 57.9025L92.5766 55.7616L91.262 54.7297L83.7568 56.8265L85.0059 57.9025Z" fill="#FEED00"/>
<path d="M77.2132 84.1011L85.1143 82.1871L83.8925 82.8296L75.9807 84.7519L77.2132 84.1011Z" fill="#00E4F8"/>
<path d="M78.346 83.1153L86.239 81.2144L85.1157 82.1856L77.2147 84.0997L78.346 83.1153Z" fill="#0CF4EB"/>
<path d="M79.3463 81.8223L87.2341 79.9393L86.2383 81.2156L78.3452 83.1166L79.3463 81.8223Z" fill="#19FFDE"/>
<path d="M80.1917 80.2495L88.0772 78.3888L87.235 79.9387L79.3472 81.8217L80.1917 80.2495Z" fill="#29FFCE"/>
<path d="M80.8571 78.4388L88.7439 76.604L88.0776 78.3887L80.192 80.2495L80.8571 78.4388Z" fill="#3CFFBA"/>
<path d="M81.3246 76.435L89.2154 74.6294L88.743 76.6037L80.8562 78.4384L81.3246 76.435Z" fill="#53FFA4"/>
<path d="M81.5822 74.2899L89.4806 72.5158L89.2153 74.6292L81.3245 76.4348L81.5822 74.2899Z" fill="#66FF90"/>
<path d="M81.622 72.0581L89.5304 70.3172L89.48 72.5152L81.5817 74.2892L81.622 72.0581Z" fill="#7DFF7A"/>
<path d="M81.442 69.7993L89.3633 68.0922L89.5301 70.3174L81.6218 72.0583L81.442 69.7993Z" fill="#94FF63"/>
<path d="M81.0469 67.5724L88.9835 65.899L89.3638 68.0929L81.4425 69.7999L81.0469 67.5724Z" fill="#AAFF4D"/>
<path d="M80.4444 65.4349L88.3982 63.7941L88.9828 65.8987L81.0462 67.5721L80.4444 65.4349Z" fill="#BEFF39"/>
<path d="M79.6514 63.446L87.6238 61.8358L88.3977 63.7951L80.4438 65.4359L79.6514 63.446Z" fill="#D1FF26"/>
<path d="M72.3316 57.1346L80.4193 55.6259L81.7691 55.8398L73.6982 57.353L72.3316 57.1346Z" fill="#FFE200"/>
<path d="M78.6888 61.655L86.6809 60.0726L87.624 61.8343L79.6516 63.4445L78.6888 61.655Z" fill="#E1FF16"/>
<path d="M73.6972 57.355L81.7681 55.8418L83.1042 56.4128L75.0518 57.9359L73.6972 57.355Z" fill="#FFE600"/>
<path d="M77.5834 60.1144L85.5958 58.5563L86.6833 60.0732L78.6912 61.6555L77.5834 60.1144Z" fill="#EEFF09"/>
<path d="M75.0524 57.9347L83.1048 56.4116L84.3915 57.3249L76.3589 58.8631L75.0524 57.9347Z" fill="#FFEA00"/>
<path d="M76.358 58.8636L84.3906 57.3254L85.5937 58.5569L77.5813 60.1151L76.358 58.8636Z" fill="#FBF100"/>
<path d="M69.2358 86.2238L77.2149 84.1012L75.9823 84.7519L67.9622 86.8985L69.2358 86.2238Z" fill="#00E0FB"/>
<path d="M70.4012 85.2008L78.3445 83.1157L77.2131 84.1001L69.234 86.2227L70.4012 85.2008Z" fill="#09F0EE"/>
<path d="M71.4339 83.8558L79.3477 81.8207L78.3467 83.115L70.4034 85.2001L71.4339 83.8558Z" fill="#16FFE1"/>
<path d="M72.2992 82.2236L80.1903 80.2498L79.3459 81.822L71.4321 83.8571L72.2992 82.2236Z" fill="#29FFCE"/>
<path d="M72.9794 80.3411L80.8554 78.4386L80.1902 80.2493L72.2991 82.2231L72.9794 80.3411Z" fill="#3CFFBA"/>
<path d="M73.4544 78.2579L81.3235 76.4348L80.8554 78.4383L72.9793 80.3408L73.4544 78.2579Z" fill="#50FFA7"/>
<path d="M73.712 76.0286L81.5825 74.291L81.3246 76.436L73.4555 78.2591L73.712 76.0286Z" fill="#66FF90"/>
<path d="M73.7422 73.7078L81.6226 72.0598L81.5824 74.2908L73.7119 76.0284L73.7422 73.7078Z" fill="#7DFF7A"/>
<path d="M73.5447 71.3571L81.4431 69.8001L81.6227 72.0591L73.7424 73.7072L73.5447 71.3571Z" fill="#94FF63"/>
<path d="M73.122 69.0388L81.0461 67.5721L81.4417 69.7997L73.5433 71.3567L73.122 69.0388Z" fill="#AAFF4D"/>
<path d="M72.4893 66.8145L80.4464 65.4348L81.0482 67.5719L73.1241 69.0386L72.4893 66.8145Z" fill="#C1FF36"/>
<path d="M71.6565 64.7437L79.6526 63.4453L80.4452 65.4352L72.4881 66.8149L71.6565 64.7437Z" fill="#D4FF23"/>
<path d="M64.034 58.1724L72.3312 57.1356L73.6978 57.3539L65.4517 58.4005L64.034 58.1724Z" fill="#FFDE00"/>
<path d="M70.6488 62.881L78.6894 61.656L79.6522 63.4454L71.6561 64.7439L70.6488 62.881Z" fill="#E4FF13"/>
<path d="M65.4518 58.4003L73.698 57.3538L75.0525 57.9347L66.8591 59.0058L65.4518 58.4003Z" fill="#FFDE00"/>
<path d="M69.4934 61.2761L77.5828 60.1146L78.6905 61.6557L70.6499 62.8807L69.4934 61.2761Z" fill="#F1FC06"/>
<path d="M66.8599 59.0071L75.0533 57.9361L76.3596 58.8645L68.219 59.9743L66.8599 59.0071Z" fill="#FFE600"/>
<path d="M68.2177 59.9731L76.3583 58.8634L77.5816 60.1148L69.4922 61.2764L68.2177 59.9731Z" fill="#FEED00"/>
<path d="M60.3229 89.2779L67.9626 86.8982L66.6152 87.2099L58.8992 89.6066L60.3229 89.2779Z" fill="#00CCFF"/>
<path d="M61.6657 88.5622L69.2352 86.2218L67.9615 86.8965L60.3218 89.2762L61.6657 88.5622Z" fill="#00D8FF"/>
<path d="M62.8963 87.4796L70.4033 85.1999L69.236 86.2218L61.6665 88.5622L62.8963 87.4796Z" fill="#02E8F4"/>
<path d="M63.979 86.0555L71.4327 83.8566L70.402 85.2008L62.8951 87.4805L63.979 86.0555Z" fill="#13FCE4"/>
<path d="M64.8894 84.324L72.3006 82.2242L71.4336 83.8577L63.9799 86.0566L64.8894 84.324Z" fill="#23FFD4"/>
<path d="M65.5996 82.3252L72.9802 80.3403L72.2999 82.2223L64.8888 84.3221L65.5996 82.3252Z" fill="#39FFBE"/>
<path d="M66.0923 80.1158L73.4554 78.2588L72.9803 80.3417L65.5997 82.3266L66.0923 80.1158Z" fill="#50FFA7"/>
<path d="M66.3522 77.7478L73.7111 76.0286L73.4545 78.2591L66.0914 80.1161L66.3522 77.7478Z" fill="#66FF90"/>
<path d="M66.3747 75.2831L73.7431 73.7078L73.7128 76.0284L66.3539 77.7477L66.3747 75.2831Z" fill="#7DFF7A"/>
<path d="M66.1523 72.7863L73.5437 71.3575L73.7414 73.7076L66.373 75.2829L66.1523 72.7863Z" fill="#97FF60"/>
<path d="M65.6945 70.3219L73.1219 69.0382L73.5433 71.356L66.1519 72.7848L65.6945 70.3219Z" fill="#ADFF49"/>
<path d="M65.0119 67.9589L72.4875 66.815L73.1222 69.0391L65.6948 70.3228L65.0119 67.9589Z" fill="#C4FF33"/>
<path d="M64.1216 65.7569L71.6563 64.7435L72.4881 66.8147L65.0124 67.9587L64.1216 65.7569Z" fill="#D7FF1F"/>
<path d="M56.0189 58.7694L64.0355 58.1734L65.4534 58.4015L57.5213 59.0124L56.0189 58.7694Z" fill="#FFD700"/>
<path d="M63.0461 63.7778L70.6496 62.8821L71.6569 64.745L64.1222 65.7584L63.0461 63.7778Z" fill="#EBFF0C"/>
<path d="M57.5195 59.0121L65.4516 58.4011L66.8588 59.0066L59.0124 59.6563L57.5195 59.0121Z" fill="#FFD700"/>
<path d="M61.8132 62.0712L69.4927 61.2772L70.649 62.8818L63.0456 63.7775L61.8132 62.0712Z" fill="#F8F500"/>
<path d="M59.0123 59.6561L66.8586 59.0064L68.2176 59.9736L60.4563 60.6848L59.0123 59.6561Z" fill="#FFDB00"/>
<path d="M60.458 60.6841L68.2193 59.9728L69.4939 61.2761L61.8144 62.0701L60.458 60.6841Z" fill="#FFE600"/>
<path d="M35.9399 96.2257L40.9763 93.4478L39.3581 92.0496L34.1659 94.6925L35.9399 96.2257Z" fill="#00A0FF"/>
<path d="M34.167 94.6926L39.3592 92.0497L37.8559 90.2685L32.5172 92.7403L34.167 94.6926Z" fill="#00B0FF"/>
<path d="M37.7929 97.3008L42.668 94.427L40.9752 93.4467L35.9388 96.2246L37.7929 97.3008Z" fill="#0094FF"/>
<path d="M32.5162 92.7382L37.8549 90.2664L36.5044 88.1466L31.0318 90.4152L32.5162 92.7382Z" fill="#00C4FF"/>
<path d="M39.6811 97.8927L44.3931 94.9649L42.668 94.4275L37.7929 97.3013L39.6811 97.8927Z" fill="#0094FF"/>
<path d="M31.0307 90.4173L36.5033 88.1487L35.3394 85.7427L29.7493 87.7808L31.0307 90.4173Z" fill="#00E0FB"/>
<path d="M41.5567 97.9843L46.108 95.0459L44.3937 94.9657L39.6817 97.8935L41.5567 97.9843Z" fill="#0094FF"/>
<path d="M29.7505 87.7794L35.3405 85.7412L34.393 83.1087L28.7044 84.8947L29.7505 87.7794Z" fill="#13FCE4"/>
<path d="M43.3723 97.5707L47.769 94.665L46.1087 95.0454L41.5574 97.9838L43.3723 97.5707Z" fill="#009CFF"/>
<path d="M28.7051 84.8962L34.3937 83.1103L33.6871 80.3168L27.9215 81.8346L28.7051 84.8962Z" fill="#30FFC7"/>
<path d="M45.0805 96.6616L49.3324 93.8322L47.7681 94.6652L43.3714 97.5709L45.0805 96.6616Z" fill="#00ACFF"/>
<path d="M27.9199 81.8323L33.6855 80.3145L33.2387 77.4298L27.4199 78.6703L27.9199 81.8323Z" fill="#49FFAD"/>
<path d="M27.4196 78.6717L33.2385 77.4312L33.0641 74.5285L27.2172 75.489L27.4196 78.6717Z" fill="#6AFF8D"/>
<path d="M27.2171 75.4889L33.064 74.5284L33.1678 71.6816L27.3189 72.3666L27.2171 75.4889Z" fill="#87FF70"/>
<path d="M27.3196 72.3654L33.1685 71.6804L33.5495 68.9629L27.7256 69.384L27.3196 72.3654Z" fill="#A7FF50"/>
<path d="M27.7248 69.3855L33.5487 68.9645L34.1986 66.4474L28.4257 66.623L27.7248 69.3855Z" fill="#C4FF33"/>
<path d="M28.4276 66.6214L34.2004 66.4458L35.1038 64.1956L29.4072 64.1508L28.4276 66.6214Z" fill="#DEFF19"/>
<path d="M29.4051 64.1518L35.1017 64.1966L36.2365 62.2736L30.6397 62.0397L29.4051 64.1518Z" fill="#F8F500"/>
<path d="M30.6406 62.039L36.2374 62.2729L37.5751 60.7294L32.0993 60.3431L30.6406 62.039Z" fill="#FFDB00"/>
<path d="M32.0987 60.3448L37.5744 60.7311L39.0807 59.61L33.7443 59.1124L32.0987 60.3448Z" fill="#FFC800"/>
<path d="M33.7442 59.1113L39.0807 59.6089L40.7164 58.9418L35.5335 58.3776L33.7442 59.1113Z" fill="#FFB900"/>
<path d="M35.5348 58.3781L40.7178 58.9423L42.4398 58.7489L37.4209 58.1648L35.5348 58.3781Z" fill="#FFAE00"/>
<path d="M32.2085 99.0146L35.9397 96.2258L34.1657 94.6925L30.2609 97.3309L32.2085 99.0146Z" fill="#008CFF"/>
<path d="M30.2603 97.3304L34.1651 94.692L32.5154 92.7397L28.4478 95.1877L30.2603 97.3304Z" fill="#009CFF"/>
<path d="M34.2418 100.196L37.7929 97.3006L35.9388 96.2246L32.2076 99.0134L34.2418 100.196Z" fill="#0080FF"/>
<path d="M28.4475 95.1879L32.5151 92.7399L31.0308 90.4169L26.8149 92.6387L28.4475 95.1879Z" fill="#00B4FF"/>
<path d="M36.3123 100.848L39.6812 97.8917L37.793 97.3003L34.2419 100.196L36.3123 100.848Z" fill="#007CFF"/>
<path d="M26.8144 92.639L31.0303 90.4171L29.7488 87.7807L25.4028 89.746L26.8144 92.639Z" fill="#00D0FF"/>
<path d="M38.368 100.952L41.5565 97.9832L39.6814 97.8923L36.3126 100.848L38.368 100.952Z" fill="#007CFF"/>
<path d="M25.4039 89.746L29.7498 87.7807L28.7037 84.8958L24.249 86.5803L25.4039 89.746Z" fill="#09F0EE"/>
<path d="M40.3563 100.501L43.371 97.569L41.556 97.9823L38.3675 100.951L40.3563 100.501Z" fill="#0088FF"/>
<path d="M24.2485 86.5805L28.7032 84.8961L27.9196 81.8346L23.3804 83.2204L24.2485 86.5805Z" fill="#26FFD1"/>
<path d="M42.2295 99.5076L45.0809 96.6601L43.3719 97.5693L40.3571 100.501L42.2295 99.5076Z" fill="#0098FF"/>
<path d="M23.3809 83.2192L27.9201 81.8334L27.42 78.6713L22.823 79.7478L23.3809 83.2192Z" fill="#46FFB1"/>
<path d="M43.9375 97.9916L46.6406 95.2752L45.0812 96.6596L42.2298 99.5071L43.9375 97.9916Z" fill="#00ACFF"/>
<path d="M22.823 79.749L27.42 78.6725L27.2176 75.4898L22.5908 76.254L22.823 79.749Z" fill="#66FF90"/>
<path d="M22.5905 76.2541L27.2172 75.49L27.3193 72.3678L22.6923 72.8243L22.5905 76.2541Z" fill="#8AFF6D"/>
<path d="M22.693 72.8236L27.32 72.367L27.7258 69.3855L23.1283 69.5471L22.693 72.8236Z" fill="#AAFF4D"/>
<path d="M23.1281 69.5466L27.7256 69.385L28.4265 66.6225L23.8878 66.5094L23.1281 69.5466Z" fill="#CAFF2C"/>
<path d="M23.8883 66.5098L28.427 66.6228L29.4067 64.1522L24.9553 63.7924L23.8883 66.5098Z" fill="#E7FF0F"/>
<path d="M24.9537 63.7926L29.4052 64.1523L30.6399 62.0402L26.3017 61.4684L24.9537 63.7926Z" fill="#FFE600"/>
<path d="M26.3018 61.4668L30.64 62.0386L32.0987 60.3427L27.8976 59.5998L26.3018 61.4668Z" fill="#FFCC00"/>
<path d="M27.8997 59.6016L32.1008 60.3445L33.7463 59.1121L29.7024 58.2441L27.8997 59.6016Z" fill="#FFB600"/>
<path d="M29.7004 58.2443L33.7442 59.1124L35.5335 58.3787L31.663 57.4354L29.7004 58.2443Z" fill="#FFA300"/>
<path d="M31.6636 57.4343L35.5341 58.3776L37.4201 58.1643L33.7344 57.1983L31.6636 57.4343Z" fill="#FF9800"/>
<path d="M33.7342 57.199L37.4199 58.165L39.3525 58.4798L35.8578 57.5446L33.7342 57.199Z" fill="#FF9400"/>
<path d="M35.8573 57.5432L39.352 58.4784L41.2792 59.3142L37.9767 58.4627L35.8573 57.5432Z" fill="#FF9400"/>
<path d="M29.7353 101.7L32.2086 99.0138L30.2611 97.3301L27.6012 99.8546L29.7353 101.7Z" fill="#0074FF"/>
<path d="M27.6021 99.8545L30.262 97.33L28.4494 95.1873L25.615 97.5072L27.6021 99.8545Z" fill="#0084FF"/>
<path d="M31.9633 102.998L34.2428 100.197L32.2086 99.0142L29.7353 101.7L31.9633 102.998Z" fill="#0068FF"/>
<path d="M25.6137 97.5063L28.4482 95.1864L26.8156 92.6371L23.8226 94.7142L25.6137 97.5063Z" fill="#00A0FF"/>
<path d="M34.2291 103.713L36.3119 100.848L34.2414 100.196L31.9619 102.997L34.2291 103.713Z" fill="#0064FF"/>
<path d="M23.8231 94.7148L26.8161 92.6377L25.4045 89.7446L22.2725 91.5462L23.8231 94.7148Z" fill="#00C0FF"/>
<path d="M36.4798 103.83L38.3678 100.951L36.3124 100.847L34.2296 103.713L36.4798 103.83Z" fill="#0064FF"/>
<path d="M22.2728 91.5467L25.4049 89.7451L24.2501 86.5794L21.0023 88.0792L22.2728 91.5467Z" fill="#00E4F8"/>
<path d="M38.6581 103.342L40.3576 100.501L38.3688 100.951L36.4808 103.83L38.6581 103.342Z" fill="#0070FF"/>
<path d="M21.0023 88.079L24.2501 86.5792L23.3821 83.219L20.045 84.3977L21.0023 88.079Z" fill="#1FFFD7"/>
<path d="M40.7063 102.259L42.2286 99.5093L40.3564 100.503L38.6569 103.344L40.7063 102.259Z" fill="#0080FF"/>
<path d="M20.0444 84.3984L23.3815 83.2197L22.8235 79.7485L19.4254 80.5945L20.0444 84.3984Z" fill="#40FFB7"/>
<path d="M42.5768 100.602L43.9373 97.9927L42.2297 99.5081L40.7074 102.258L42.5768 100.602Z" fill="#0098FF"/>
<path d="M19.4244 80.5937L22.8225 79.7477L22.5904 76.2527L19.1621 76.7625L19.4244 80.5937Z" fill="#66FF90"/>
<path d="M44.2173 98.4129L45.4359 95.9908L43.937 97.9927L42.5765 100.602L44.2173 98.4129Z" fill="#00B4FF"/>
<path d="M19.1618 76.7619L22.5901 76.2522L22.6919 72.8224L19.265 73.0007L19.1618 76.7619Z" fill="#8AFF6D"/>
<path d="M19.2669 73.0019L22.6938 72.8236L23.129 69.5474L19.7356 69.4074L19.2669 73.0019Z" fill="#ADFF49"/>
<path d="M19.7344 69.4079L23.1278 69.5478L23.8875 66.5106L20.5595 66.0742L19.7344 69.4079Z" fill="#D1FF26"/>
<path d="M20.5598 66.074L23.8879 66.5105L24.9547 63.793L21.7224 63.0898L20.5598 66.074Z" fill="#F4F802"/>
<path d="M21.7226 63.0893L24.9549 63.7925L26.3031 61.4683L23.1951 60.5356L21.7226 63.0893Z" fill="#FFD700"/>
<path d="M23.1956 60.5355L26.3036 61.4683L27.8994 59.6013L24.9409 58.483L23.1956 60.5355Z" fill="#FFB900"/>
<path d="M24.9411 58.4822L27.8996 59.6005L29.7022 58.243L26.9151 56.9887L24.9411 58.4822Z" fill="#FF9F00"/>
<path d="M26.9144 56.9885L29.7015 58.2428L31.6642 57.4338L29.0653 56.0975L26.9144 56.9885Z" fill="#FF8D00"/>
<path d="M29.0651 56.0993L31.6639 57.4356L33.7347 57.1996L31.3367 55.838L29.0651 56.0993Z" fill="#FF8200"/>
<path d="M31.3359 55.8367L33.7339 57.1983L35.8576 57.5438L33.6668 56.2149L31.3359 55.8367Z" fill="#FF7A00"/>
<path d="M33.6664 56.2158L35.8571 57.5447L37.9766 58.4641L35.9939 57.2253L33.6664 56.2158Z" fill="#FF7E00"/>
<path d="M45.4353 95.9904L48.0089 93.4488L46.6396 95.2758L43.9364 97.9923L45.4353 95.9904Z" fill="#00C8FF"/>
<path d="M27.8996 107.81L27.8454 106.233L25.3216 104.05L25.1839 105.461L27.8996 107.81Z" fill="#0028FF"/>
<path d="M25.1839 105.462L25.3216 104.051L22.9701 101.276L22.6535 102.477L25.1839 105.462Z" fill="#0040FF"/>
<path d="M30.7356 109.468L30.481 107.772L27.8466 106.235L27.9008 107.812L30.7356 109.468Z" fill="#0018FF"/>
<path d="M22.6555 102.478L22.9722 101.276L20.8507 97.9769L20.3723 98.9279L22.6555 102.478Z" fill="#0060FF"/>
<path d="M33.6217 110.386L33.1626 108.624L30.4819 107.771L30.7366 109.466L33.6217 110.386Z" fill="#0010FF"/>
<path d="M20.3724 98.928L20.8508 97.977L19.0122 94.2321L18.3928 94.899L20.3724 98.928Z" fill="#0088FF"/>
<path d="M36.485 110.547L35.822 108.771L33.1607 108.625L33.6198 110.388L36.485 110.547Z" fill="#0014FF"/>
<path d="M18.3916 94.8981L19.011 94.2312L17.5016 90.1319L16.7657 90.4868L18.3916 94.8981Z" fill="#00B4FF"/>
<path d="M39.2608 109.938L38.3996 108.201L35.8238 108.77L36.4867 110.547L39.2608 109.938Z" fill="#0020FF"/>
<path d="M16.766 90.4867L17.5018 90.1317L16.3607 85.7775L15.5358 85.7999L16.766 90.4867Z" fill="#02E8F4"/>
<path d="M41.8743 108.571L40.8251 106.927L38.3988 108.2L39.26 109.937L41.8743 108.571Z" fill="#0038FF"/>
<path d="M15.5356 85.8003L16.3605 85.7779L15.6186 81.2758L14.7345 80.9527L15.5356 85.8003Z" fill="#30FFC7"/>
<path d="M44.2624 106.478L43.0401 104.98L40.8253 106.929L41.8745 108.573L44.2624 106.478Z" fill="#0054FF"/>
<path d="M14.7353 80.953L15.6194 81.2761L15.2981 76.7381L14.3868 76.0647L14.7353 80.953Z" fill="#60FF97"/>
<path d="M46.3606 103.699L44.9847 102.395L43.0388 104.978L44.2611 106.476L46.3606 103.699Z" fill="#007CFF"/>
<path d="M14.3853 76.0635L15.2967 76.737L15.4077 72.278L14.502 71.258L14.3853 76.0635Z" fill="#8DFF6A"/>
<path d="M48.1163 100.305L46.6102 99.2417L44.9849 102.397L46.3609 103.701L48.1163 100.305Z" fill="#00A8FF"/>
<path d="M14.5028 71.2582L15.4084 72.2782L15.9526 68.0126L15.0862 66.6588L14.5028 71.2582Z" fill="#BEFF39"/>
<path d="M49.4792 96.372L47.8703 95.5881L46.6101 99.2401L48.1162 100.304L49.4792 96.372Z" fill="#00D8FF"/>
<path d="M15.0855 66.6612L15.9519 68.015L16.9192 64.0549L16.1251 62.3886L15.0855 66.6612Z" fill="#EBFF0C"/>
<path d="M50.4121 92.0001L48.731 91.5296L47.8719 95.5886L49.4807 96.3724L50.4121 92.0001Z" fill="#23FFD4"/>
<path d="M16.1259 62.3883L16.9201 64.0545L18.2892 60.5058L17.5993 58.5573L16.1259 62.3883Z" fill="#FFD300"/>
<path d="M50.8822 87.2963L49.162 87.165L48.73 91.5284L50.4111 91.9989L50.8822 87.2963Z" fill="#50FFA7"/>
<path d="M17.5989 58.5566L18.2888 60.5051L20.0274 57.4644L19.4714 55.2718L17.5989 58.5566Z" fill="#FFA700"/>
<path d="M50.8773 82.3847L49.1525 82.6099L49.163 87.1657L50.8833 87.297L50.8773 82.3847Z" fill="#80FF77"/>
<path d="M19.4719 55.272L20.028 57.4646L22.0933 55.0173L21.6976 52.6261L19.4719 55.272Z" fill="#FF8200"/>
<path d="M50.3897 77.3936L48.6958 77.9831L49.1523 82.6117L50.877 82.3865L50.3897 77.3936Z" fill="#B1FF46"/>
<path d="M21.6976 52.6266L22.0932 55.0178L24.4326 53.2339L24.22 50.696L21.6976 52.6266Z" fill="#FF6000"/>
<path d="M49.4292 72.4521L47.8015 73.4036L48.6952 77.9818L50.389 77.3923L49.4292 72.4521Z" fill="#DEFF19"/>
<path d="M24.2186 50.6947L24.4312 53.2325L26.9837 52.165L26.972 49.537L24.2186 50.6947Z" fill="#FF4A00"/>
<path d="M48.0188 67.699L46.4909 69.0001L47.8008 73.4039L49.4286 72.4523L48.0188 67.699Z" fill="#FFE200"/>
<path d="M26.9718 49.5379L26.9836 52.166L29.6817 51.8483L29.8831 49.1903L26.9718 49.5379Z" fill="#FF3800"/>
<path d="M46.1958 63.2626L44.7991 64.8909L46.4922 68.9996L48.0201 67.6984L46.1958 63.2626Z" fill="#FFB200"/>
<path d="M29.8853 49.1887L29.6839 51.8467L32.4548 52.2914L32.8758 49.6648L29.8853 49.1887Z" fill="#FF3000"/>
<path d="M44.0049 59.2675L42.7673 61.1907L44.7993 64.8913L46.1959 63.263L44.0049 59.2675Z" fill="#FF8D00"/>
<path d="M32.8737 49.6669L32.4527 52.2934L35.2211 53.4913L35.8617 50.9571L32.8737 49.6669Z" fill="#FF3400"/>
<path d="M41.5042 55.8244L40.4493 58.0017L42.7657 61.1915L44.0032 59.2683L41.5042 55.8244Z" fill="#FF6800"/>
<path d="M35.8623 50.9572L35.2216 53.4914L37.9118 55.4116L38.7658 53.0287L35.8623 50.9572Z" fill="#FF3B00"/>
<path d="M38.7658 53.028L37.9118 55.411L40.4496 58.0016L41.5045 55.8243L38.7658 53.028Z" fill="#FF4E00"/>
<path d="M27.8471 106.235L28.3623 104.153L26.0343 102.14L25.3233 104.052L27.8471 106.235Z" fill="#0040FF"/>
<path d="M25.3213 104.05L26.0323 102.138L23.8636 99.5783L22.9697 101.275L25.3213 104.05Z" fill="#0058FF"/>
<path d="M30.4807 107.771L30.7915 105.569L28.3614 104.152L27.8462 106.234L30.4807 107.771Z" fill="#0034FF"/>
<path d="M22.9707 101.276L23.8646 99.5791L21.9088 96.5344L20.8493 97.9765L22.9707 101.276Z" fill="#0074FF"/>
<path d="M33.1615 108.625L33.2641 106.355L30.7915 105.57L30.4807 107.772L33.1615 108.625Z" fill="#002CFF"/>
<path d="M20.8501 97.9769L21.9095 96.5348L20.2153 93.0797L19.0114 94.2321L20.8501 97.9769Z" fill="#009CFF"/>
<path d="M35.8225 108.769L35.7181 106.484L33.2639 106.353L33.1612 108.623L35.8225 108.769Z" fill="#0030FF"/>
<path d="M19.0119 94.2318L20.2157 93.0794L18.8259 89.2976L17.5024 90.1323L19.0119 94.2318Z" fill="#00C4FF"/>
<path d="M38.3982 108.202L38.0928 105.957L35.7179 106.485L35.8223 108.77L38.3982 108.202Z" fill="#003CFF"/>
<path d="M17.5014 90.1324L18.8248 89.2977L17.7755 85.2818L16.3603 85.7782L17.5014 90.1324Z" fill="#0CF4EB"/>
<path d="M40.824 106.929L40.3283 104.779L38.0923 105.957L38.3978 108.201L40.824 106.929Z" fill="#0050FF"/>
<path d="M16.3609 85.7779L17.7761 85.2816L17.0954 81.1307L15.619 81.2758L16.3609 85.7779Z" fill="#36FFC1"/>
<path d="M43.0397 104.979L42.3693 102.977L40.3292 104.779L40.825 106.929L43.0397 104.979Z" fill="#006CFF"/>
<path d="M15.6182 81.2748L17.0946 81.1297L16.8023 76.9476L15.297 76.7371L15.6182 81.2748Z" fill="#60FF97"/>
<path d="M44.9854 102.396L44.1604 100.591L42.3691 102.976L43.0395 104.978L44.9854 102.396Z" fill="#0090FF"/>
<path d="M15.298 76.7372L16.8033 76.9478L16.9096 72.8403L15.409 72.2783L15.298 76.7372Z" fill="#8DFF6A"/>
<path d="M46.6109 99.2401L45.6557 97.6792L44.1606 100.591L44.9856 102.395L46.6109 99.2401Z" fill="#00B8FF"/>
<path d="M15.4083 72.2785L16.9089 72.8405L17.4144 68.9131L15.9525 68.013L15.4083 72.2785Z" fill="#B7FF40"/>
<path d="M47.8711 95.5891L46.8137 94.3123L45.6557 97.6804L46.6109 99.2413L47.8711 95.5891Z" fill="#02E8F4"/>
<path d="M15.9534 68.0134L17.4153 68.9135L18.3102 65.2694L16.9207 64.0535L15.9534 68.0134Z" fill="#E1FF16"/>
<path d="M48.7289 91.5294L47.6004 90.5704L46.8123 94.3116L47.8698 95.5884L48.7289 91.5294Z" fill="#29FFCE"/>
<path d="M16.9186 64.0527L18.3081 65.2686L19.5725 62.0048L18.2877 60.5038L16.9186 64.0527Z" fill="#FFDE00"/>
<path d="M49.1616 87.1651L47.9957 86.5501L47.6012 90.5696L48.7297 91.5286L49.1616 87.1651Z" fill="#53FFA4"/>
<path d="M18.289 60.5058L19.5738 62.0067L21.1776 59.212L20.0276 57.4651L18.289 60.5058Z" fill="#FFB600"/>
<path d="M49.1515 82.61L47.9833 82.356L47.9961 86.5507L49.162 87.1658L49.1515 82.61Z" fill="#80FF77"/>
<path d="M20.0271 57.464L21.177 59.2109L23.0804 56.9632L22.0923 55.0167L20.0271 57.464Z" fill="#FF9400"/>
<path d="M48.694 77.983L47.5595 78.0979L47.9823 82.3577L49.1505 82.6117L48.694 77.983Z" fill="#ADFF49"/>
<path d="M22.0928 55.0168L23.0809 56.9633L25.2355 55.3265L24.4322 53.233L22.0928 55.0168Z" fill="#FF7700"/>
<path d="M47.8013 73.4032L46.7358 73.8846L47.5604 78.0962L48.695 77.9812L47.8013 73.4032Z" fill="#D7FF1F"/>
<path d="M24.4311 53.2334L25.2344 55.3269L27.5842 54.349L26.9837 52.1659L24.4311 53.2334Z" fill="#FF6000"/>
<path d="M46.4906 68.9991L45.5281 69.8344L46.735 73.8842L47.8005 73.4028L46.4906 68.9991Z" fill="#FEED00"/>
<path d="M26.9844 52.1659L27.5849 54.349L30.0676 54.0603L29.6826 51.8482L26.9844 52.1659Z" fill="#FF5200"/>
<path d="M44.7977 64.8924L43.9696 66.0586L45.5282 69.8364L46.4907 69.0012L44.7977 64.8924Z" fill="#FFC400"/>
<path d="M29.6828 51.8488L30.0678 54.061L32.6167 54.4726L32.4538 52.2935L29.6828 51.8488Z" fill="#FF4A00"/>
<path d="M42.7671 61.1918L42.1014 62.6566L43.9709 66.0587L44.799 64.8924L42.7671 61.1918Z" fill="#FF9F00"/>
<path d="M32.4536 52.2922L32.6165 54.4713L35.1626 55.5746L35.2221 53.4901L32.4536 52.2922Z" fill="#FF4A00"/>
<path d="M40.4513 58.0016L39.9714 59.7238L42.102 62.6562L42.7676 61.1914L40.4513 58.0016Z" fill="#FF7E00"/>
<path d="M35.2222 53.491L35.1627 55.5755L37.6365 57.342L37.9123 55.4112L35.2222 53.491Z" fill="#FF5500"/>
<path d="M37.9131 55.4106L37.6372 57.3414L39.9712 59.7234L40.451 58.0012L37.9131 55.4106Z" fill="#FF6800"/>
<path d="M28.3626 104.152L29.7361 101.699L27.6022 99.8541L26.0347 102.139L28.3626 104.152Z" fill="#005CFF"/>
<path d="M26.0343 102.138L27.6019 99.8536L25.6146 97.5062L23.8657 99.5779L26.0343 102.138Z" fill="#0070FF"/>
<path d="M30.7907 105.569L31.9621 102.997L29.7341 101.699L28.3606 104.152L30.7907 105.569Z" fill="#004CFF"/>
<path d="M23.8661 99.5795L25.615 97.5078L23.8237 94.7158L21.9103 96.5349L23.8661 99.5795Z" fill="#008CFF"/>
<path d="M33.2642 106.354L34.2302 103.714L31.9631 102.997L30.7916 105.569L33.2642 106.354Z" fill="#0048FF"/>
<path d="M21.908 96.5353L23.8214 94.7162L22.2709 91.5477L20.2137 93.0801L21.908 96.5353Z" fill="#00ACFF"/>
<path d="M35.7175 106.485L36.4796 103.831L34.2294 103.714L33.2633 106.354L35.7175 106.485Z" fill="#004CFF"/>
<path d="M20.2148 93.08L22.272 91.5475L21.0015 88.08L18.825 89.2983L20.2148 93.08Z" fill="#00D4FF"/>
<path d="M38.0931 105.958L38.6575 103.344L36.4803 103.832L35.7183 106.486L38.0931 105.958Z" fill="#0054FF"/>
<path d="M18.8244 89.2977L21.0009 88.0794L20.0434 84.3982L17.775 85.282L18.8244 89.2977Z" fill="#16FFE1"/>
<path d="M40.3287 104.778L40.7066 102.258L38.6572 103.342L38.0928 105.956L40.3287 104.778Z" fill="#0068FF"/>
<path d="M17.7765 85.2824L20.045 84.3987L19.4262 80.5948L17.0958 81.1317L17.7765 85.2824Z" fill="#3CFFBA"/>
<path d="M42.3694 102.978L42.5766 100.604L40.7072 102.259L40.3294 104.78L42.3694 102.978Z" fill="#0080FF"/>
<path d="M17.0938 81.1312L19.4242 80.5943L19.1618 76.763L16.8015 76.9489L17.0938 81.1312Z" fill="#63FF94"/>
<path d="M44.1603 100.593L44.217 98.4138L42.5762 100.603L42.369 102.978L44.1603 100.593Z" fill="#00A0FF"/>
<path d="M16.8037 76.9476L19.164 76.7616L19.2672 73.0004L16.9101 72.8401L16.8037 76.9476Z" fill="#8DFF6A"/>
<path d="M45.6557 97.6796L45.5862 95.7414L44.2174 98.4126L44.1607 100.591L45.6557 97.6796Z" fill="#00C8FF"/>
<path d="M16.9088 72.8408L19.266 73.0011L19.7347 69.4066L17.4143 68.9135L16.9088 72.8408Z" fill="#B4FF43"/>
<path d="M46.8134 94.311L46.6457 92.6531L45.586 95.7408L45.6555 97.679L46.8134 94.311Z" fill="#0CF4EB"/>
<path d="M17.414 68.9124L19.7344 69.4055L20.5595 66.0718L18.309 65.2682L17.414 68.9124Z" fill="#DBFF1C"/>
<path d="M47.6012 90.5708L47.3661 89.2263L46.6454 92.6539L46.8131 94.3118L47.6012 90.5708Z" fill="#30FFC7"/>
<path d="M18.3091 65.2688L20.5596 66.0724L21.7222 63.0882L19.5735 62.0049L18.3091 65.2688Z" fill="#FEED00"/>
<path d="M47.9965 86.5507L47.7272 85.5451L47.3669 89.2258L47.602 90.5703L47.9965 86.5507Z" fill="#56FFA0"/>
<path d="M19.5748 62.0068L21.7235 63.09L23.1958 60.5363L21.1786 59.212L19.5748 62.0068Z" fill="#FFC800"/>
<path d="M48.0333 82.3572L47.715 81.7072L47.7296 85.5462L48.0484 86.5518L48.0333 82.3572Z" fill="#80FF77"/>
<path d="M21.1776 59.2102L23.1948 60.5345L24.9402 58.4819L23.081 56.9625L21.1776 59.2102Z" fill="#FFA700"/>
<path d="M47.5611 78.0969L47.3278 77.8098L47.7151 81.7065L47.984 82.3566L47.5611 78.0969Z" fill="#A7FF50"/>
<path d="M23.0807 56.9637L24.94 58.4831L26.9139 56.9896L25.2354 55.3268L23.0807 56.9637Z" fill="#FF8D00"/>
<path d="M46.7361 73.8861L46.573 73.9594L47.3275 77.8105L47.5608 78.0976L46.7361 73.8861Z" fill="#CEFF29"/>
<path d="M25.2363 55.3264L26.9149 56.9892L29.066 56.0982L27.5861 54.3485L25.2363 55.3264Z" fill="#FF7700"/>
<path d="M45.5282 69.8363L45.4684 70.2574L46.572 73.9594L46.7351 73.8862L45.5282 69.8363Z" fill="#F4F802"/>
<path d="M27.5847 54.348L29.0646 56.0977L31.3361 55.8364L30.0673 54.0593L27.5847 54.348Z" fill="#FF6C00"/>
<path d="M43.9701 66.0565L44.0442 66.8029L45.4689 70.2553L45.5286 69.8342L43.9701 66.0565Z" fill="#FFD300"/>
<path d="M30.068 54.0606L31.3368 55.8377L33.6678 56.2159L32.6168 54.4722L30.068 54.0606Z" fill="#FF6400"/>
<path d="M42.1019 62.6556L42.337 63.6955L44.0456 66.804L43.9714 66.0576L42.1019 62.6556Z" fill="#FFB200"/>
<path d="M32.6165 54.4718L33.6674 56.2155L35.995 57.225L35.1625 55.5751L32.6165 54.4718Z" fill="#FF6400"/>
<path d="M39.9713 59.723L40.39 61.016L42.3369 63.6953L42.1018 62.6554L39.9713 59.723Z" fill="#FF9400"/>
<path d="M35.1621 55.5741L35.9946 57.224L38.2555 58.8388L37.6358 57.3406L35.1621 55.5741Z" fill="#FF6C00"/>
<path d="M37.6356 57.3402L38.2553 58.8384L40.3882 61.0152L39.9695 59.7222L37.6356 57.3402Z" fill="#FF7E00"/>
<path d="M28.2273 108.771L27.9005 107.813L25.1849 105.464L25.3295 106.265L28.2273 108.771Z" fill="#000CFF"/>
<path d="M25.329 106.265L25.1844 105.463L22.6541 102.478L22.629 103.079L25.329 106.265Z" fill="#0028FF"/>
<path d="M31.2535 110.537L30.7362 109.467L27.9013 107.812L28.2281 108.77L31.2535 110.537Z" fill="#0000FF"/>
<path d="M22.628 103.079L22.6531 102.478L20.3699 98.9284L20.1914 99.2918L22.628 103.079Z" fill="#004CFF"/>
<path d="M34.3319 111.521L33.6201 110.387L30.7349 109.467L31.2522 110.538L34.3319 111.521Z" fill="#0000FF"/>
<path d="M20.1924 99.2896L20.3708 98.9262L18.3913 94.8972L18.0794 94.9902L20.1924 99.2896Z" fill="#0074FF"/>
<path d="M37.3903 111.692L36.4845 110.545L33.6195 110.386L34.3313 111.519L37.3903 111.692Z" fill="#0000FF"/>
<path d="M18.079 94.9922L18.3909 94.8992L16.765 90.488L16.3429 90.2838L18.079 94.9922Z" fill="#00A8FF"/>
<path d="M40.3539 111.045L39.2589 109.937L36.4848 110.546L37.3906 111.692L40.3539 111.045Z" fill="#0008FF"/>
<path d="M16.3436 90.2835L16.7657 90.4877L15.5356 85.8008L15.0293 85.2794L16.3436 90.2835Z" fill="#00E0FB"/>
<path d="M43.1498 109.589L41.8752 108.57L39.2608 109.936L40.3558 111.044L43.1498 109.589Z" fill="#0020FF"/>
<path d="M15.0282 85.2801L15.5345 85.8014L14.7334 80.9538L14.1714 80.1025L15.0282 85.2801Z" fill="#2CFFCA"/>
<path d="M45.7031 107.357L44.2627 106.478L41.8748 108.573L43.1495 109.591L45.7031 107.357Z" fill="#0040FF"/>
<path d="M14.173 80.1008L14.7349 80.9521L14.3864 76.0638L13.799 74.8776L14.173 80.1008Z" fill="#5DFF9A"/>
<path d="M47.9488 104.392L46.3609 103.699L44.2613 106.476L45.7017 107.355L47.9488 104.392Z" fill="#0068FF"/>
<path d="M13.7977 74.8794L14.3852 76.0656L14.5019 71.26L13.9205 69.7422L13.7977 74.8794Z" fill="#90FF66"/>
<path d="M49.8296 100.768L48.1164 100.305L46.361 103.7L47.9489 104.393L49.8296 100.768Z" fill="#0098FF"/>
<path d="M13.9204 69.7422L14.5018 71.2601L15.0852 66.6609L14.5417 64.8229L13.9204 69.7422Z" fill="#C1FF36"/>
<path d="M51.2926 96.5676L49.4799 96.3718L48.117 100.304L49.8302 100.767L51.2926 96.5676Z" fill="#00CCFF"/>
<path d="M14.543 64.8206L15.0865 66.6585L16.1261 62.3861L15.6521 60.2481L14.543 64.8206Z" fill="#F4F802"/>
<path d="M52.2951 91.8961L50.412 92.0003L49.4807 96.3726L51.2933 96.5684L52.2951 91.8961Z" fill="#1CFFDB"/>
<path d="M15.651 60.248L16.125 62.386L17.5983 58.5549L17.2241 56.1454L15.651 60.248Z" fill="#FFC400"/>
<path d="M52.8055 86.8679L50.8833 87.297L50.4122 91.9997L52.2953 91.8955L52.8055 86.8679Z" fill="#4DFFAA"/>
<path d="M17.2239 56.1463L17.598 58.5558L19.4705 55.2711L19.2245 52.6263L17.2239 56.1463Z" fill="#FF9800"/>
<path d="M52.8053 81.6142L50.8771 82.3849L50.8831 87.2972L52.8053 86.868L52.8053 81.6142Z" fill="#80FF77"/>
<path d="M19.2244 52.6265L19.4703 55.2714L21.696 52.6255L21.6037 49.7889L19.2244 52.6265Z" fill="#FF6F00"/>
<path d="M52.2902 76.2714L50.39 77.3912L50.8774 82.384L52.8055 81.6133L52.2902 76.2714Z" fill="#B4FF43"/>
<path d="M21.6052 49.788L21.6975 52.6246L24.2198 50.694L24.3027 47.715L21.6052 49.788Z" fill="#FF4A00"/>
<path d="M51.2676 70.9856L49.4291 72.4524L50.3888 77.3924L52.289 76.2726L51.2676 70.9856Z" fill="#E4FF13"/>
<path d="M24.3037 47.7147L24.2208 50.6937L26.9742 49.5361L27.2494 46.4689L24.3037 47.7147Z" fill="#FF3000"/>
<path d="M49.7643 65.898L48.02 67.7L49.4297 72.4532L51.2682 70.9864L49.7643 65.898Z" fill="#FFD300"/>
<path d="M27.2471 46.4714L26.972 49.5386L29.8832 49.1908L30.3623 46.0932L27.2471 46.4714Z" fill="#FF2200"/>
<path d="M47.8165 61.1472L46.1964 63.2627L48.0207 67.6986L49.7651 65.8966L47.8165 61.1472Z" fill="#FFA300"/>
<path d="M30.3632 46.0924L29.8841 49.19L32.8745 49.6661L33.5637 46.597L30.3632 46.0924Z" fill="#FF1A00"/>
<path d="M45.4732 56.8696L44.0044 59.2676L46.1955 63.2632L47.8155 61.1477L45.4732 56.8696Z" fill="#FF7A00"/>
<path d="M33.564 46.5977L32.8749 49.6669L35.8628 50.9573L36.762 47.9756L33.564 46.5977Z" fill="#FF1A00"/>
<path d="M42.7998 53.1813L41.5051 55.8225L44.004 59.2664L45.4728 56.8683L42.7998 53.1813Z" fill="#FF5500"/>
<path d="M36.7626 47.975L35.8634 50.9567L38.7669 53.0281L39.8699 50.1905L36.7626 47.975Z" fill="#FF2500"/>
<path d="M39.8689 50.1892L38.7659 53.0268L41.5047 55.823L42.7995 53.1819L39.8689 50.1892Z" fill="#FF3800"/>
<defs>
<linearGradient id="paint0_linear" x1="8.71585" y1="8.72383" x2="8.71585" y2="112.061" gradientUnits="userSpaceOnUse">
<stop stop-color="#FF1A00"/>
<stop offset="0.244946" stop-color="#F8F500"/>
<stop offset="0.494291" stop-color="#87FF70"/>
<stop offset="0.747869" stop-color="#00E0FB"/>
<stop offset="1" stop-color="#004CFF"/>
</linearGradient>
</defs>
</svg>
