<svg width="120" height="120" viewBox="0 0 120 120" fill="none" xmlns="http://www.w3.org/2000/svg">
<rect x="1.5" y="1.5" width="117" height="117" rx="2.5" fill="#0657F9"/>
<rect x="1.5" y="1.5" width="117" height="117" rx="2.5" stroke="black" stroke-width="3"/>
<g clip-path="url(#clip0)">
<path fill-rule="evenodd" clip-rule="evenodd" d="M24.4444 93.0242V88.0773C27.4108 88.0773 29.7097 87.2215 31.5833 85.7724C33.4989 84.2907 35.0962 82.0881 36.4282 79.2263C39.1196 73.4438 40.4657 65.5691 41.4894 57.3217C41.7429 55.2796 41.9768 53.2088 42.2092 51.1516C42.8932 45.0968 43.5638 39.1603 44.68 34.4239C45.4298 31.2424 46.4406 28.3036 47.9776 26.1143C49.5858 23.8237 51.8856 22.2222 54.9858 22.2222C58.633 22.2222 61.0811 24.4217 62.6264 27.2812C64.1206 30.0459 64.9843 33.7534 65.558 37.7539C66.1387 41.8028 66.4547 46.4142 66.7232 51.1159C66.7855 52.2069 66.8453 53.3026 66.9051 54.3993C67.065 57.3317 67.2254 60.2716 67.4362 63.152C71.7367 63.5993 74.7787 65.2871 77.1328 67.7287C79.1663 69.8378 80.6775 72.5495 82.0542 75.0198C82.3977 75.6363 82.7329 76.2377 83.0657 76.811C84.8236 79.839 86.7282 82.5616 89.798 84.5842C92.8475 86.5934 97.3087 88.0773 104.444 88.0773V93.3333H77.9779C75.0894 93.3333 72.6333 92.387 70.6334 90.6871C68.6857 89.0315 67.2779 86.7559 66.2256 84.224C64.3846 79.7948 63.4332 74.0797 62.8414 68.117C59.9642 68.4957 58.2238 69.6291 56.8761 71.0886C55.9776 72.0616 55.1968 73.2459 54.3893 74.6526C53.9908 75.347 53.6004 76.0688 53.1854 76.8363L53.1726 76.8601C52.7578 77.6272 52.3199 78.4366 51.8527 79.2504C49.9721 82.5268 47.513 86.071 43.1884 88.737C38.8719 91.3979 32.9639 93.0242 24.4444 93.0242ZM67.8757 68.2032C68.4561 73.7917 69.3381 78.7055 70.8499 82.3426C71.7254 84.449 72.7468 85.9616 73.8917 86.9348C74.9845 87.8637 76.2845 88.3865 77.9779 88.3865H86.5617C82.7945 85.7601 80.5312 82.3775 78.73 79.2749C78.2883 78.5141 77.8823 77.7888 77.4956 77.098C76.1615 74.715 75.0576 72.7433 73.5149 71.1433C72.1682 69.7465 70.4745 68.6528 67.8757 68.2032ZM62.4257 63.1838C58.3004 63.6751 55.4087 65.3435 53.1847 67.752C51.9151 69.1268 50.9187 70.6816 50.0415 72.2097C49.6114 72.9592 49.1953 73.7286 48.7903 74.4776L48.7638 74.5266C48.3454 75.3003 47.9362 76.0562 47.5049 76.8075C45.7918 79.792 43.8368 82.5087 40.5443 84.5384C39.9175 84.9248 39.2326 85.292 38.4804 85.6334C39.4305 84.2979 40.2525 82.8367 40.9698 81.2954C44.0255 74.7302 45.4323 66.1411 46.4521 57.9247C46.726 55.7181 46.972 53.5422 47.2114 51.4245C47.8847 45.4698 48.5059 39.9747 49.5494 35.5472C50.2546 32.5547 51.0927 30.3486 52.0842 28.9364C53.0045 27.6256 53.9128 27.1691 54.9858 27.1691C56.1672 27.1691 57.2033 27.7377 58.2172 29.6137C59.2822 31.5845 60.0527 34.5799 60.6076 38.4489C61.1556 42.2696 61.4627 46.6944 61.7312 51.3949C61.7918 52.457 61.8505 53.5335 61.9097 54.6185C62.0642 57.452 62.2218 60.343 62.4257 63.1838Z" fill="white"/>
<path fill-rule="evenodd" clip-rule="evenodd" d="M27.4074 60.5604H24.4444V55.6135H27.4074V60.5604ZM36.2963 60.5604H30.3704V55.6135H36.2963V60.5604ZM45.1852 60.5604H39.2593V55.6135H45.1852V60.5604ZM54.0741 60.5604H48.1481V55.6135H54.0741V60.5604ZM62.963 60.5604H57.037V55.6135H62.963V60.5604ZM71.8519 60.5604H65.9259V55.6135H71.8519V60.5604ZM80.7407 60.5604H74.8148V55.6135H80.7407V60.5604ZM89.6296 60.5604H83.7037V55.6135H89.6296V60.5604ZM98.5185 60.5604H92.5926V55.6135H98.5185V60.5604ZM104.444 60.5604H101.481V55.6135H104.444V60.5604Z" fill="white"/>
</g>
<defs>
<clipPath id="clip0">
<rect width="75.5556" height="75.5556" fill="white" transform="translate(22.2222 22.2222)"/>
</clipPath>
</defs>
</svg>
